# Noesis .obj export.
#
mtllib treeSlideCliffHorz_prefab.mtl
g
v  -15.636719 -7.783112 12.271240
v  -2.483154 16.576815 11.286255
v  -20.559204 -6.863205 7.357300
v  -27.723633 -30.581121 5.950073
v  -6.651855 16.719534 24.983154
v  -12.125122 64.893074 16.351807
v  3.556641 18.981598 10.199341
v  3.612061 -2.304443 8.414185
v  -7.598633 63.801781 -0.606445
v  -0.113770 63.010246 -0.995850
v  -11.678711 -31.011129 -4.628418
v  3.556641 18.981598 10.199341
v  12.109619 -7.124893 19.180542
v  3.612061 -2.304443 8.414185
v  24.096191 -32.274330 9.152100
v  -11.678711 -31.011129 -4.628418
v  -27.723633 -30.581121 5.950073
v  -20.913086 -33.640251 15.518677
v  -17.484375 -15.296822 25.258362
v  -15.636719 -7.783112 12.271240
v  -6.651855 16.719534 24.983154
v  10.107178 -36.039589 28.604126
v  -12.125122 64.893074 16.351807
v  -7.598633 63.801781 -0.606445
v  -2.483154 16.576815 11.286255
v  -0.113770 63.010246 -0.995850
v  2.626831 60.539696 15.347778
v  2.690430 14.690962 23.058838
v  3.556641 18.981598 10.199341
v  -19.675049 206.638000 -3.922119
v  -12.189941 205.846436 -4.311523
v  -0.113770 63.010246 -0.995850
v  -7.598633 63.801781 -0.606445
v  -18.734619 204.735779 12.786743
v  -19.675049 206.638000 -3.922119
v  -12.189941 205.846436 -4.311523
v  -3.982422 200.382355 10.440796
v  2.690430 14.690962 23.058838
v  2.626831 60.539696 15.347778
v  -12.125122 64.893074 16.351807
v  -6.651855 16.719534 24.983154
v  -0.145508 -20.440847 25.196533
v  -17.484375 -15.296822 25.258362
v  -18.734619 204.735779 12.786743
v  -3.982422 200.382355 10.440796
v  10.107178 -36.039589 28.604126
v  -0.145508 -20.440847 25.196533
v  -17.484375 -15.296822 25.258362
v  2.690430 14.690962 23.058838
v  12.109619 -7.124893 19.180542
v  3.556641 18.981598 10.199341
v  12.109619 -7.124893 19.180542
v  24.096191 -32.274330 9.152100
v  10.107178 -36.039589 28.604126
v  24.096191 -32.274330 9.152100
v  -0.145508 -20.440847 25.196533
v  -18.676025 3.999234 -19.040039
v  -22.966553 -4.614359 -25.543701
v  -25.055054 -1.448526 -19.491211
v  -27.978516 -13.123718 -26.218018
v  -31.896484 -12.434681 -23.732666
v  -33.117920 -20.867659 -26.916748
v  -34.657715 -20.515005 -26.185547
v  -34.718384 -36.020462 -26.223877
v  -10.980469 41.426804 -7.188721
v  -18.537842 24.791630 -15.314453
v  -7.926025 21.285164 -8.342773
v  -22.866699 4.309265 -10.419922
v  -3.116943 24.407333 0.559326
v  -18.676025 3.999234 -19.040039
v  -10.980469 41.426804 -7.188721
v  -10.327881 25.933914 -18.110352
v  -18.537842 24.791630 -15.314453
v  -18.676025 3.999234 -19.040039
v  -11.345825 -0.957515 -21.096802
v  -22.966553 -4.614359 -25.543701
v  -13.100830 -7.228079 -29.191895
v  -17.602783 -9.677429 -30.268066
v  -20.296631 -9.103958 -29.212158
v  -18.225830 -20.877089 -32.264893
v  -21.409546 -20.476194 -31.445068
v  -18.225830 -32.111946 -32.265015
v  -21.409546 -31.711042 -31.445068
v  -7.128662 39.385460 -13.162842
v  -1.043457 54.596558 8.824219
v  -6.550293 51.746796 9.149780
v  -20.988770 -8.649899 -25.791626
v  -27.978516 -13.123718 -26.218018
v  -3.116943 24.407333 0.559326
v  -1.043457 54.596558 8.824219
v  -0.598389 18.266670 18.075684
v  -13.100830 -7.228079 -29.191895
v  -11.345825 -0.957515 -21.096802
v  -12.237305 -3.615427 -10.038574
v  -7.926025 21.285164 -8.342773
v  -10.327881 25.933914 -18.110352
v  -9.857544 -10.706766 -27.953491
v  -17.602783 -9.677429 -30.268066
v  -14.294189 -13.063702 -29.080688
v  -18.225830 -20.877089 -32.264893
v  -3.116943 24.407333 0.559326
v  -7.128662 39.385460 -13.162842
v  -1.043457 54.596558 8.824219
v  -18.461670 -21.081244 -28.732788
v  -18.461670 -32.316109 -28.732788
v  -18.225830 -32.111946 -32.265015
v  -25.055054 -1.448526 -19.491211
v  -25.024170 -1.752642 -15.341064
v  -18.676025 3.999234 -19.040039
v  -25.694092 -14.102354 -20.474487
v  -28.872925 -9.995941 -16.445313
v  -25.024170 -1.752642 -15.341064
v  -28.236572 -25.051718 -21.885620
v  -33.976807 -20.121069 -19.695801
v  -31.680298 -36.399185 -18.975098
v  -26.078369 -36.555031 -19.791870
v  -22.866699 4.309265 -10.419922
v  -25.694092 -14.102354 -20.474487
v  -12.237305 -2.438581 -19.964722
v  -28.508301 -9.982533 -13.770630
v  -28.236572 -25.051718 -21.885620
v  -33.229980 -20.130346 -16.856934
v  -26.078369 -36.555031 -19.791870
v  -29.771606 -36.608238 -16.822510
v  -28.872925 -9.995941 -16.445313
v  -28.508301 -9.982533 -13.770630
v  -22.866699 4.309265 -10.419922
v  -25.024170 -1.752642 -15.341064
v  -18.676025 3.999234 -19.040039
v  -33.976807 -20.121069 -19.695801
v  -33.229980 -20.130346 -16.856934
v  -28.508301 -9.982533 -13.770630
v  -28.872925 -9.995941 -16.445313
v  -31.680298 -36.399185 -18.975098
v  -29.771606 -36.608238 -16.822510
v  -33.229980 -20.130346 -16.856934
v  -33.976807 -20.121069 -19.695801
v  -26.426025 -12.375889 -20.476318
v  -20.988770 -8.649899 -25.791626
v  -25.055054 -1.448526 -19.491211
v  -31.896484 -12.434681 -23.732666
v  -34.657715 -20.515005 -26.185547
v  -20.988770 -8.649899 -25.791626
v  -26.426025 -12.375889 -20.476318
v  -27.978516 -13.123718 -26.218018
v  -34.886841 -36.324501 -22.892334
v  -34.657715 -20.515005 -26.185547
v  -34.886841 -36.324501 -22.892334
v  -26.426025 -12.375889 -20.476318
v  -34.718384 -36.020462 -26.223877
v  -33.117920 -20.867659 -26.916748
v  -34.886841 -36.324501 -22.892334
v  -20.296631 -9.103958 -29.212158
v  -14.294189 -13.063702 -29.080688
v  -20.988770 -8.649899 -25.791626
v  -21.409546 -20.476194 -31.445068
v  -18.461670 -21.081244 -28.732788
v  -14.294189 -13.063702 -29.080688
v  -20.296631 -9.103958 -29.212158
v  -21.409546 -31.711042 -31.445068
v  -18.461670 -32.316109 -28.732788
v  -0.598389 18.266670 18.075684
v  -10.980469 41.426804 -7.188721
v  -3.116943 24.407333 0.559326
v  -6.550293 51.746796 9.149780
v  -25.694092 -14.102354 -20.474487
v  -25.024170 -1.752642 -15.341064
v  -25.055054 -1.448526 -19.491211
v  -22.966553 -4.614359 -25.543701
v  -20.296631 -9.103958 -29.212158
v  -20.988770 -8.649899 -25.791626
v  -12.237305 -2.438581 -19.964722
v  -7.926025 21.285164 -8.342773
v  -22.866699 4.309265 -10.419922
v  -9.857544 -10.706766 -27.953491
v  -12.237305 -3.615427 -10.038574
v  -20.988770 -8.649899 -25.791626
v  -14.294189 -13.063702 -29.080688

vt  0.807178 -0.406997 0.000000
vt  0.840435 -0.195948 0.000000
vt  0.871260 -0.396174 0.000000
vt  0.779693 -0.615987 0.000000
vt  0.742559 -0.195899 0.000000
vt  0.710929 -0.008315 0.000000
vt  1.001545 -0.196345 0.000000
vt  0.985630 -0.352600 0.000000
vt  0.869206 -0.008315 0.000000
vt  1.003987 -0.008315 0.000000
vt  0.965743 -0.565111 0.000000
vt  1.001545 -0.196345 0.000000
vt  0.745896 -0.389735 0.000000
vt  0.985630 -0.352600 0.000000
vt  0.718256 -0.563351 0.000000
vt  0.965743 -0.565111 0.000000
vt  0.779693 -0.615987 0.000000
vt  0.702260 -0.574479 0.000000
vt  0.700729 -0.426487 0.000000
vt  0.807178 -0.406997 0.000000
vt  0.742559 -0.195899 0.000000
vt  0.456618 -0.491290 0.000000
vt  0.710929 -0.008315 0.000000
vt  0.869206 -0.008315 0.000000
vt  0.840435 -0.195948 0.000000
vt  1.003987 -0.008315 0.000000
vt  0.660315 -0.008315 0.000000
vt  0.673743 -0.199778 0.000000
vt  1.001545 -0.196345 0.000000
vt  0.930235 -0.513523 0.000000
vt  0.977355 -0.513523 0.000000
vt  1.003987 -0.008315 0.000000
vt  0.869206 -0.008315 0.000000
vt  0.771440 -0.513523 0.000000
vt  0.930235 -0.513523 0.000000
vt  0.977355 -0.513523 0.000000
vt  0.667104 -0.513523 0.000000
vt  0.673743 -0.199778 0.000000
vt  0.660315 -0.008315 0.000000
vt  0.710929 -0.008315 0.000000
vt  0.742559 -0.195899 0.000000
vt  0.649756 -0.377373 0.000000
vt  0.700729 -0.426487 0.000000
vt  0.771440 -0.513523 0.000000
vt  0.667104 -0.513523 0.000000
vt  0.456618 -0.491290 0.000000
vt  0.649756 -0.377373 0.000000
vt  0.700729 -0.426487 0.000000
vt  0.673743 -0.199778 0.000000
vt  0.745896 -0.389735 0.000000
vt  1.001545 -0.196345 0.000000
vt  0.745896 -0.389735 0.000000
vt  0.718256 -0.563351 0.000000
vt  0.456618 -0.491290 0.000000
vt  0.718256 -0.563351 0.000000
vt  0.649756 -0.377373 0.000000
vt  0.879995 -0.322659 0.000000
vt  0.878334 -0.419792 0.000000
vt  0.814993 -0.384158 0.000000
vt  0.840809 -0.488580 0.000000
vt  0.785951 -0.483168 0.000000
vt  0.802817 -0.553046 0.000000
vt  0.768768 -0.551022 0.000000
vt  0.784621 -0.670915 0.000000
vt  0.890147 -0.110405 0.000000
vt  0.877757 -0.179306 0.000000
vt  0.827699 -0.187171 0.000000
vt  0.797121 -0.299135 0.000000
vt  0.846121 -0.121488 0.000000
vt  0.879995 -0.322659 0.000000
vt  0.890147 -0.110405 0.000000
vt  0.903734 -0.171919 0.000000
vt  0.877757 -0.179306 0.000000
vt  0.879995 -0.322659 0.000000
vt  0.943134 -0.338810 0.000000
vt  0.878334 -0.419792 0.000000
vt  0.973761 -0.412571 0.000000
vt  0.955844 -0.453612 0.000000
vt  0.926583 -0.453558 0.000000
vt  0.945696 -0.541527 0.000000
vt  0.934407 -0.543232 0.000000
vt  0.944527 -0.626398 0.000000
vt  0.933238 -0.628102 0.000000
vt  0.902654 -0.113459 0.000000
vt  0.897523 -0.016009 0.000000
vt  0.874265 -0.016842 0.000000
vt  0.894021 -0.440391 0.000000
vt  0.840809 -0.488580 0.000000
vt  0.994740 -0.131176 0.000000
vt  0.897523 -0.016009 0.000000
vt  0.994740 -0.010839 0.000000
vt  0.973761 -0.412571 0.000000
vt  0.943134 -0.338810 0.000000
vt  0.992287 -0.374469 0.000000
vt  0.992287 -0.200854 0.000000
vt  0.903734 -0.171919 0.000000
vt  0.985838 -0.419855 0.000000
vt  0.955844 -0.453612 0.000000
vt  0.970748 -0.461456 0.000000
vt  0.945696 -0.541527 0.000000
vt  0.994740 -0.131176 0.000000
vt  0.902654 -0.113459 0.000000
vt  0.897523 -0.016009 0.000000
vt  0.958229 -0.534336 0.000000
vt  0.957060 -0.619207 0.000000
vt  0.944527 -0.626398 0.000000
vt  0.814993 -0.384158 0.000000
vt  0.801517 -0.336578 0.000000
vt  0.879995 -0.322659 0.000000
vt  0.762187 -0.382207 0.000000
vt  0.721231 -0.338555 0.000000
vt  0.801517 -0.336578 0.000000
vt  0.628444 -0.394711 0.000000
vt  0.628444 -0.349811 0.000000
vt  0.432252 -0.369204 0.000000
vt  0.432252 -0.431593 0.000000
vt  0.797121 -0.299135 0.000000
vt  0.730296 -0.388104 0.000000
vt  0.785787 -0.375119 0.000000
vt  0.705268 -0.326739 0.000000
vt  0.635173 -0.429901 0.000000
vt  0.628444 -0.336590 0.000000
vt  0.438982 -0.457391 0.000000
vt  0.432252 -0.360866 0.000000
vt  0.721231 -0.338555 0.000000
vt  0.705268 -0.326739 0.000000
vt  0.797121 -0.299135 0.000000
vt  0.801517 -0.336578 0.000000
vt  0.879995 -0.322659 0.000000
vt  0.628444 -0.349811 0.000000
vt  0.628444 -0.336590 0.000000
vt  0.705268 -0.326739 0.000000
vt  0.721231 -0.338555 0.000000
vt  0.432252 -0.369204 0.000000
vt  0.432252 -0.360866 0.000000
vt  0.628444 -0.336590 0.000000
vt  0.628444 -0.349811 0.000000
vt  0.771866 -0.466202 0.000000
vt  0.783242 -0.399019 0.000000
vt  0.814993 -0.384158 0.000000
vt  0.785951 -0.483168 0.000000
vt  0.768768 -0.551022 0.000000
vt  0.894021 -0.440391 0.000000
vt  0.855199 -0.503075 0.000000
vt  0.840809 -0.488580 0.000000
vt  0.828086 -0.559615 0.000000
vt  0.768768 -0.551022 0.000000
vt  0.722372 -0.667216 0.000000
vt  0.771866 -0.466202 0.000000
vt  0.784621 -0.670915 0.000000
vt  0.802817 -0.553046 0.000000
vt  0.828086 -0.559615 0.000000
vt  0.926583 -0.453558 0.000000
vt  0.925009 -0.458122 0.000000
vt  0.894021 -0.440391 0.000000
vt  0.934407 -0.543232 0.000000
vt  0.915212 -0.532342 0.000000
vt  0.925009 -0.458122 0.000000
vt  0.926583 -0.453558 0.000000
vt  0.933238 -0.628102 0.000000
vt  0.914042 -0.617213 0.000000
vt  0.803519 -0.029467 0.000000
vt  0.890147 -0.110405 0.000000
vt  0.846121 -0.121488 0.000000
vt  0.874265 -0.016842 0.000000
vt  0.762187 -0.382207 0.000000
vt  0.801517 -0.336578 0.000000
vt  0.814993 -0.384158 0.000000
vt  0.878334 -0.419792 0.000000
vt  0.926583 -0.453558 0.000000
vt  0.894021 -0.440391 0.000000
vt  0.994623 -0.369509 0.000000
vt  0.992147 -0.197851 0.000000
vt  0.826268 -0.320219 0.000000
vt  0.925009 -0.458122 0.000000
vt  0.894021 -0.440391 0.000000
vt  0.894021 -0.440391 0.000000
vt  0.925009 -0.458122 0.000000

vn  -0.853187 0.378076 0.359348
vn  -0.485885 0.073775 -0.870903
vn  -0.805403 0.554126 -0.210407
vn  -0.962181 0.208603 -0.175194
vn  -0.594208 0.241190 0.767297
vn  -0.777382 -0.027601 0.628423
vn  0.802607 0.076770 -0.591547
vn  0.445035 0.227259 -0.866197
vn  -0.614015 -0.160472 -0.772810
vn  0.619588 -0.061165 -0.782541
vn  -0.082790 0.298903 -0.950686
vn  0.802607 0.076770 -0.591547
vn  0.885647 0.240846 0.397017
vn  0.445035 0.227259 -0.866197
vn  0.887200 0.453509 -0.084889
vn  -0.082790 0.298903 -0.950686
vn  -0.962181 0.208603 -0.175194
vn  -0.670668 -0.246166 0.699720
vn  -0.649974 0.106075 0.752517
vn  -0.853187 0.378076 0.359348
vn  -0.594208 0.241190 0.767297
vn  0.389472 0.349478 0.852160
vn  -0.777382 -0.027601 0.628423
vn  -0.614015 -0.160472 -0.772810
vn  -0.485885 0.073775 -0.870903
vn  0.619588 -0.061165 -0.782541
vn  0.815968 0.112416 0.567061
vn  0.662934 0.196537 0.722421
vn  0.802607 0.076770 -0.591547
vn  -0.751472 -0.131724 -0.646482
vn  0.378749 -0.007636 -0.925468
vn  0.619588 -0.061165 -0.782541
vn  -0.614015 -0.160472 -0.772810
vn  -0.780828 -0.075256 0.620197
vn  -0.751472 -0.131724 -0.646482
vn  0.378749 -0.007636 -0.925468
vn  0.904779 0.097527 0.414565
vn  0.662934 0.196537 0.722421
vn  0.815968 0.112416 0.567061
vn  -0.777382 -0.027601 0.628423
vn  -0.594208 0.241190 0.767297
vn  0.279092 0.168945 0.945286
vn  -0.649974 0.106075 0.752517
vn  -0.780828 -0.075256 0.620197
vn  0.904779 0.097527 0.414565
vn  0.389472 0.349478 0.852160
vn  0.279092 0.168945 0.945286
vn  -0.649974 0.106075 0.752517
vn  0.662934 0.196537 0.722421
vn  0.885647 0.240846 0.397017
vn  0.802607 0.076770 -0.591547
vn  0.885647 0.240846 0.397017
vn  0.887200 0.453509 -0.084889
vn  0.389472 0.349478 0.852160
vn  0.887200 0.453509 -0.084889
vn  0.279092 0.168945 0.945286
vn  -0.486358 0.415074 -0.768875
vn  -0.417873 0.504908 -0.755281
vn  -0.803326 0.587056 -0.100168
vn  0.251425 -0.045054 -0.966828
vn  -0.919144 0.390264 0.053551
vn  0.029801 -0.002278 -0.999553
vn  -0.934340 0.285870 -0.212807
vn  -0.019385 -0.828244 -0.560032
vn  -0.870453 0.466418 -0.157373
vn  -0.895315 0.394458 -0.206916
vn  0.570387 -0.462124 0.679043
vn  -0.953129 0.223471 0.203977
vn  0.312720 -0.948704 0.046545
vn  -0.486358 0.415074 -0.768875
vn  -0.870453 0.466418 -0.157373
vn  0.382831 0.219574 -0.897345
vn  -0.895315 0.394458 -0.206916
vn  -0.486358 0.415074 -0.768875
vn  0.829657 0.131627 -0.542534
vn  -0.417873 0.504908 -0.755281
vn  0.414551 0.483191 -0.771151
vn  -0.026245 0.291580 -0.956186
vn  -0.761727 -0.126881 -0.635353
vn  0.538956 -0.062577 -0.840007
vn  -0.947697 0.227727 -0.223633
vn  0.698242 0.000000 -0.715862
vn  -0.973559 0.000000 -0.228434
vn  0.265426 0.476665 -0.838057
vn  0.535977 0.657300 -0.529798
vn  -0.820264 0.557135 -0.129493
vn  -0.306637 -0.851657 -0.425035
vn  0.251425 -0.045054 -0.966828
vn  0.312720 -0.948704 0.046545
vn  0.535977 0.657300 -0.529798
vn  0.989047 -0.028270 -0.144870
vn  0.414551 0.483191 -0.771151
vn  0.829657 0.131627 -0.542534
vn  0.994450 -0.104797 0.009287
vn  0.570387 -0.462124 0.679043
vn  0.382831 0.219574 -0.897345
vn  0.654632 0.383137 -0.651662
vn  -0.026245 0.291580 -0.956186
vn  0.492074 -0.248385 -0.834367
vn  0.538956 -0.062577 -0.840007
vn  0.312720 -0.948704 0.046545
vn  0.265426 0.476665 -0.838057
vn  0.535977 0.657300 -0.529798
vn  0.252433 -0.024786 0.967297
vn  0.431114 -0.000000 0.902297
vn  0.698242 0.000000 -0.715862
vn  -0.803326 0.587056 -0.100168
vn  -0.869465 0.461659 -0.175788
vn  -0.486358 0.415074 -0.768875
vn  0.753120 -0.655205 -0.059297
vn  -0.819455 0.420724 -0.389211
vn  -0.869465 0.461659 -0.175788
vn  0.702597 0.117685 -0.701788
vn  -0.830693 0.222181 -0.510475
vn  -0.907114 -0.298479 -0.296740
vn  0.965981 -0.032738 -0.256533
vn  -0.953129 0.223471 0.203977
vn  0.753120 -0.655205 -0.059297
vn  0.392152 -0.486556 0.780692
vn  -0.271762 -0.043846 0.961365
vn  0.702597 0.117685 -0.701788
vn  -0.520041 -0.059975 0.852033
vn  0.965981 -0.032738 -0.256533
vn  0.022536 0.006818 0.999723
vn  -0.819455 0.420724 -0.389211
vn  -0.271762 -0.043846 0.961365
vn  -0.953129 0.223471 0.203977
vn  -0.869465 0.461659 -0.175788
vn  -0.486358 0.415074 -0.768875
vn  -0.830693 0.222181 -0.510475
vn  -0.520041 -0.059975 0.852033
vn  -0.271762 -0.043846 0.961365
vn  -0.819455 0.420724 -0.389211
vn  -0.907114 -0.298479 -0.296740
vn  0.022536 0.006818 0.999723
vn  -0.520041 -0.059975 0.852033
vn  -0.830693 0.222181 -0.510475
vn  0.299769 -0.449587 0.841433
vn  -0.306637 -0.851657 -0.425035
vn  -0.803326 0.587056 -0.100168
vn  -0.919144 0.390264 0.053551
vn  -0.934340 0.285870 -0.212807
vn  -0.306637 -0.851657 -0.425035
vn  0.299769 -0.449587 0.841433
vn  0.251425 -0.045054 -0.966828
vn  -0.121199 -0.888076 0.443433
vn  -0.934340 0.285870 -0.212807
vn  -0.121199 -0.888076 0.443433
vn  0.299769 -0.449587 0.841433
vn  -0.019385 -0.828244 -0.560032
vn  0.029801 -0.002278 -0.999553
vn  -0.121199 -0.888076 0.443433
vn  -0.761727 -0.126881 -0.635353
vn  0.492074 -0.248385 -0.834367
vn  -0.306637 -0.851657 -0.425035
vn  -0.947697 0.227727 -0.223633
vn  0.252433 -0.024786 0.967297
vn  0.492074 -0.248385 -0.834367
vn  -0.761727 -0.126881 -0.635353
vn  -0.973559 0.000000 -0.228434
vn  0.431114 -0.000000 0.902297
vn  -0.947811 -0.233955 0.216610
vn  -0.870453 0.466418 -0.157373
vn  0.312720 -0.948704 0.046545
vn  -0.820264 0.557135 -0.129493
vn  0.753120 -0.655205 -0.059297
vn  -0.869465 0.461659 -0.175788
vn  -0.803326 0.587056 -0.100168
vn  -0.417873 0.504908 -0.755281
vn  -0.761727 -0.126881 -0.635353
vn  -0.306637 -0.851657 -0.425035
vn  0.380819 -0.500168 0.777694
vn  0.380819 -0.500168 0.777694
vn  0.380819 -0.500168 0.777694
vn  -0.077057 -0.889790 0.449818
vn  -0.077057 -0.889790 0.449818
vn  -0.077057 -0.889790 0.449818
vn  -0.077057 -0.889790 0.449818

g Object57_Pivot
usemtl Temple Run Trees Material
f  1/1/1 2/2/2 3/3/3
f  3/3/3 4/4/4 1/1/1
f  5/5/5 2/2/2 1/1/1
f  5/5/5 6/6/6 2/2/2
f  2/2/2 7/7/7 8/8/8
f  3/3/3 2/2/2 8/8/8
f  2/2/2 9/9/9 7/7/7
f  9/9/9 10/10/10 7/7/7
f  11/11/11 4/4/4 3/3/3
f  8/8/8 11/11/11 3/3/3
f  12/12/12 13/13/13 14/14/14
f  13/13/13 15/15/15 14/14/14
f  15/15/15 16/16/16 14/14/14
f  17/17/17 18/18/18 19/19/19
f  20/20/20 17/17/17 19/19/19
f  19/19/19 21/21/21 20/20/20
f  18/18/18 22/22/22 19/19/19
f  23/23/23 24/24/24 25/25/25
f  26/26/26 27/27/27 28/28/28
f  29/29/29 26/26/26 28/28/28
f  30/30/30 31/31/31 32/32/32
f  33/33/33 30/30/30 32/32/32
f  23/23/23 34/34/34 24/24/24
f  34/34/34 35/35/35 24/24/24
f  26/26/26 36/36/36 27/27/27
f  36/36/36 37/37/37 27/27/27
f  38/38/38 39/39/39 40/40/40
f  41/41/41 38/38/38 40/40/40
f  42/42/42 38/38/38 41/41/41
f  43/43/43 42/42/42 41/41/41
f  40/40/40 39/39/39 44/44/44
f  39/39/39 45/45/45 44/44/44
f  46/46/46 47/47/47 48/48/48
f  49/49/49 50/50/50 51/51/51
f  42/42/42 52/52/52 38/38/38
f  42/42/42 53/53/53 52/52/52
f  54/54/54 55/55/55 56/56/56
f  57/57/57 58/58/58 59/59/59
f  58/58/58 60/60/60 59/59/59
f  60/60/60 61/61/61 59/59/59
f  60/60/60 62/62/62 61/61/61
f  62/62/62 63/63/63 61/61/61
f  62/62/62 64/64/64 63/63/63
f  65/65/65 66/66/66 67/67/67
f  68/68/68 67/67/67 66/66/66
f  69/69/69 65/65/65 67/67/67
f  70/70/70 68/68/68 66/66/66
f  71/71/71 72/72/72 73/73/73
f  74/74/74 73/73/73 72/72/72
f  75/75/75 74/74/74 72/72/72
f  75/75/75 76/76/76 74/74/74
f  77/77/77 76/76/76 75/75/75
f  77/77/77 78/78/78 76/76/76
f  78/78/78 79/79/79 76/76/76
f  78/78/78 80/80/80 79/79/79
f  80/80/80 81/81/81 79/79/79
f  80/80/80 82/82/82 81/81/81
f  82/82/82 83/83/83 81/81/81
f  84/84/84 72/72/72 71/71/71
f  85/85/85 84/84/84 71/71/71
f  86/86/86 85/85/85 71/71/71
f  76/76/76 87/87/87 88/88/88
f  89/89/89 90/90/90 91/91/91
f  92/92/92 93/93/93 94/94/94
f  94/94/94 93/93/93 95/95/95
f  93/93/93 96/96/96 95/95/95
f  97/97/97 92/92/92 94/94/94
f  92/92/92 97/97/97 98/98/98
f  97/97/97 99/99/99 98/98/98
f  99/99/99 100/100/100 98/98/98
f  95/95/95 96/96/96 101/101/101
f  96/96/96 102/102/102 101/101/101
f  102/102/102 103/103/103 101/101/101
f  104/104/104 100/100/100 99/99/99
f  104/104/104 105/105/105 100/100/100
f  105/105/105 106/106/106 100/100/100
f  107/107/107 108/108/108 109/109/109
f  110/110/110 111/111/111 112/112/112
f  110/110/110 113/113/113 111/111/111
f  113/113/113 114/114/114 111/111/111
f  113/113/113 115/115/115 114/114/114
f  116/116/116 115/115/115 113/113/113
f  117/117/117 118/118/118 119/119/119
f  120/120/120 118/118/118 117/117/117
f  120/120/120 121/121/121 118/118/118
f  122/122/122 121/121/121 120/120/120
f  122/122/122 123/123/123 121/121/121
f  124/124/124 123/123/123 122/122/122
f  125/125/125 126/126/126 127/127/127
f  128/128/128 125/125/125 127/127/127
f  129/129/129 128/128/128 127/127/127
f  130/130/130 131/131/131 132/132/132
f  133/133/133 130/130/130 132/132/132
f  134/134/134 135/135/135 136/136/136
f  137/137/137 134/134/134 136/136/136
f  138/138/138 139/139/139 140/140/140
f  141/141/141 138/138/138 140/140/140
f  141/141/141 142/142/142 138/138/138
f  143/143/143 144/144/144 145/145/145
f  144/144/144 146/146/146 145/145/145
f  147/147/147 148/148/148 149/149/149
f  150/150/150 148/148/148 147/147/147
f  146/146/146 151/151/151 145/145/145
f  152/152/152 64/64/64 62/62/62
f  153/153/153 154/154/154 155/155/155
f  156/156/156 157/157/157 158/158/158
f  159/159/159 156/156/156 158/158/158
f  156/156/156 160/160/160 157/157/157
f  160/160/160 161/161/161 157/157/157
f  162/162/162 163/163/163 164/164/164
f  165/165/165 163/163/163 162/162/162
f  166/166/166 167/167/167 168/168/168
f  169/169/169 170/170/170 171/171/171
f  172/172/172 173/173/173 174/174/174
f  175/175/175 176/176/176 177/177/177
f  178/178/178 175/175/175 177/177/177

g
