# Noesis .obj export.
#
mtllib treeSlideCliffVert_prefab.mtl
g
v  -12.271423 -7.783112 -15.636581
v  -11.286440 16.576815 -2.483016
v  -7.357482 -6.863205 -20.559067
v  -5.950254 -30.581121 -27.723494
v  -24.983339 16.719534 -6.651720
v  -16.351990 64.893074 -12.124985
v  -10.199527 18.981598 3.556778
v  -8.414371 -2.304443 3.612199
v  0.606261 63.801781 -7.598494
v  0.995665 63.010246 -0.113630
v  4.628234 -31.011129 -11.678571
v  -10.199527 18.981598 3.556778
v  -19.180729 -7.124893 12.109756
v  -8.414371 -2.304443 3.612199
v  -9.152287 -32.274330 24.096329
v  4.628234 -31.011129 -11.678571
v  -5.950254 -30.581121 -27.723494
v  -15.518859 -33.640251 -20.912949
v  -25.258545 -15.296822 -17.484240
v  -12.271423 -7.783112 -15.636581
v  -24.983339 16.719534 -6.651720
v  -28.604313 -36.039589 10.107313
v  -16.351990 64.893074 -12.124985
v  0.606261 63.801781 -7.598494
v  -11.286440 16.576815 -2.483016
v  0.995665 63.010246 -0.113630
v  -15.347963 60.539696 2.626968
v  -23.059023 14.690962 2.690566
v  -10.199527 18.981598 3.556778
v  3.921937 206.638000 -19.674910
v  4.311340 205.846436 -12.189801
v  0.995665 63.010246 -0.113630
v  0.606261 63.801781 -7.598494
v  -12.786925 204.735779 -18.734482
v  3.921937 206.638000 -19.674910
v  4.311340 205.846436 -12.189801
v  -10.440981 200.382355 -3.982284
v  -23.059023 14.690962 2.690566
v  -15.347963 60.539696 2.626968
v  -16.351990 64.893074 -12.124985
v  -24.983339 16.719534 -6.651720
v  -25.196718 -20.440847 -0.145372
v  -25.258545 -15.296822 -17.484240
v  -12.786925 204.735779 -18.734482
v  -10.440981 200.382355 -3.982284
v  -28.604313 -36.039589 10.107313
v  -25.196718 -20.440847 -0.145372
v  -25.258545 -15.296822 -17.484240
v  -23.059023 14.690962 2.690566
v  -19.180729 -7.124893 12.109756
v  -10.199527 18.981598 3.556778
v  -19.180729 -7.124893 12.109756
v  -9.152287 -32.274330 24.096329
v  -28.604313 -36.039589 10.107313
v  -9.152287 -32.274330 24.096329
v  -25.196718 -20.440847 -0.145372
v  19.039856 3.999234 -18.675884
v  25.543520 -4.614359 -22.966410
v  19.491030 -1.448526 -25.054913
v  26.217836 -13.123718 -27.978373
v  23.732485 -12.434681 -31.896341
v  26.916567 -20.867659 -33.117779
v  26.185366 -20.515005 -34.657574
v  26.223696 -36.020462 -34.718243
v  7.188537 41.426804 -10.980329
v  15.314271 24.791630 -18.537701
v  8.342589 21.285164 -7.925885
v  10.419740 4.309265 -22.866558
v  -0.559511 24.407333 -3.116804
v  19.039856 3.999234 -18.675884
v  7.188537 41.426804 -10.980329
v  18.110168 25.933914 -10.327740
v  15.314271 24.791630 -18.537701
v  19.039856 3.999234 -18.675884
v  21.096619 -0.957515 -11.345683
v  25.543520 -4.614359 -22.966410
v  29.191711 -7.228079 -13.100687
v  30.267883 -9.677429 -17.602640
v  29.211975 -9.103958 -20.296488
v  32.264709 -20.877089 -18.225687
v  31.444885 -20.476194 -21.409403
v  32.264832 -32.111946 -18.225687
v  31.444885 -31.711042 -21.409403
v  13.162658 39.385460 -7.128521
v  -8.824404 54.596558 -1.043319
v  -9.149964 51.746796 -6.550155
v  25.791443 -8.649899 -20.988626
v  26.217836 -13.123718 -27.978373
v  -0.559511 24.407333 -3.116804
v  -8.824404 54.596558 -1.043319
v  -18.075869 18.266670 -0.598252
v  29.191711 -7.228079 -13.100687
v  21.096619 -0.957515 -11.345683
v  10.038391 -3.615427 -12.237164
v  8.342589 21.285164 -7.925885
v  18.110168 25.933914 -10.327740
v  27.953308 -10.706766 -9.857401
v  30.267883 -9.677429 -17.602640
v  29.080505 -13.063702 -14.294046
v  32.264709 -20.877089 -18.225687
v  -0.559511 24.407333 -3.116804
v  13.162658 39.385460 -7.128521
v  -8.824404 54.596558 -1.043319
v  28.732605 -21.081244 -18.461527
v  28.732605 -32.316109 -18.461527
v  32.264832 -32.111946 -18.225687
v  19.491030 -1.448526 -25.054913
v  15.340882 -1.752642 -25.024029
v  19.039856 3.999234 -18.675884
v  20.474306 -14.102354 -25.693951
v  16.445131 -9.995941 -28.872784
v  15.340882 -1.752642 -25.024029
v  21.885439 -25.051718 -28.236429
v  19.695620 -20.121069 -33.976665
v  18.974916 -36.399185 -31.680157
v  19.791689 -36.555031 -26.078228
v  10.419740 4.309265 -22.866558
v  20.474306 -14.102354 -25.693951
v  19.964539 -2.438581 -12.237163
v  13.770449 -9.982533 -28.508160
v  21.885439 -25.051718 -28.236429
v  16.856752 -20.130346 -33.229839
v  19.791689 -36.555031 -26.078228
v  16.822329 -36.608238 -29.771465
v  16.445131 -9.995941 -28.872784
v  13.770449 -9.982533 -28.508160
v  10.419740 4.309265 -22.866558
v  15.340882 -1.752642 -25.024029
v  19.039856 3.999234 -18.675884
v  19.695620 -20.121069 -33.976665
v  16.856752 -20.130346 -33.229839
v  13.770449 -9.982533 -28.508160
v  16.445131 -9.995941 -28.872784
v  18.974916 -36.399185 -31.680157
v  16.822329 -36.608238 -29.771465
v  16.856752 -20.130346 -33.229839
v  19.695620 -20.121069 -33.976665
v  20.476137 -12.375889 -26.425884
v  25.791443 -8.649899 -20.988626
v  19.491030 -1.448526 -25.054913
v  23.732485 -12.434681 -31.896341
v  26.185366 -20.515005 -34.657574
v  25.791443 -8.649899 -20.988626
v  20.476137 -12.375889 -26.425884
v  26.217836 -13.123718 -27.978373
v  22.892153 -36.324501 -34.886700
v  26.185366 -20.515005 -34.657574
v  22.892153 -36.324501 -34.886700
v  20.476137 -12.375889 -26.425884
v  26.223696 -36.020462 -34.718243
v  26.916567 -20.867659 -33.117779
v  22.892153 -36.324501 -34.886700
v  29.211975 -9.103958 -20.296488
v  29.080505 -13.063702 -14.294046
v  25.791443 -8.649899 -20.988626
v  31.444885 -20.476194 -21.409403
v  28.732605 -21.081244 -18.461527
v  29.080505 -13.063702 -14.294046
v  29.211975 -9.103958 -20.296488
v  31.444885 -31.711042 -21.409403
v  28.732605 -32.316109 -18.461527
v  -18.075869 18.266670 -0.598252
v  7.188537 41.426804 -10.980329
v  -0.559511 24.407333 -3.116804
v  -9.149964 51.746796 -6.550155
v  20.474306 -14.102354 -25.693951
v  15.340882 -1.752642 -25.024029
v  19.491030 -1.448526 -25.054913
v  25.543520 -4.614359 -22.966410
v  29.211975 -9.103958 -20.296488
v  25.791443 -8.649899 -20.988626
v  19.964539 -2.438581 -12.237163
v  8.342589 21.285164 -7.925885
v  10.419740 4.309265 -22.866558
v  27.953308 -10.706766 -9.857401
v  10.038391 -3.615427 -12.237164
v  25.791443 -8.649899 -20.988626
v  29.080505 -13.063702 -14.294046

vt  0.807178 -0.406997 0.000000
vt  0.840435 -0.195948 0.000000
vt  0.871260 -0.396174 0.000000
vt  0.779693 -0.615987 0.000000
vt  0.742559 -0.195899 0.000000
vt  0.710929 -0.008315 0.000000
vt  1.001545 -0.196345 0.000000
vt  0.985630 -0.352600 0.000000
vt  0.869206 -0.008315 0.000000
vt  1.003987 -0.008315 0.000000
vt  0.965743 -0.565111 0.000000
vt  1.001545 -0.196345 0.000000
vt  0.745896 -0.389735 0.000000
vt  0.985630 -0.352600 0.000000
vt  0.718256 -0.563351 0.000000
vt  0.965743 -0.565111 0.000000
vt  0.779693 -0.615987 0.000000
vt  0.702260 -0.574479 0.000000
vt  0.700729 -0.426487 0.000000
vt  0.807178 -0.406997 0.000000
vt  0.742559 -0.195899 0.000000
vt  0.456618 -0.491290 0.000000
vt  0.710929 -0.008315 0.000000
vt  0.869206 -0.008315 0.000000
vt  0.840435 -0.195948 0.000000
vt  1.003987 -0.008315 0.000000
vt  0.660315 -0.008315 0.000000
vt  0.673743 -0.199778 0.000000
vt  1.001545 -0.196345 0.000000
vt  0.930235 -0.513523 0.000000
vt  0.977355 -0.513523 0.000000
vt  1.003987 -0.008315 0.000000
vt  0.869206 -0.008315 0.000000
vt  0.771440 -0.513523 0.000000
vt  0.930235 -0.513523 0.000000
vt  0.977355 -0.513523 0.000000
vt  0.667104 -0.513523 0.000000
vt  0.673743 -0.199778 0.000000
vt  0.660315 -0.008315 0.000000
vt  0.710929 -0.008315 0.000000
vt  0.742559 -0.195899 0.000000
vt  0.649756 -0.377373 0.000000
vt  0.700729 -0.426487 0.000000
vt  0.771440 -0.513523 0.000000
vt  0.667104 -0.513523 0.000000
vt  0.456618 -0.491290 0.000000
vt  0.649756 -0.377373 0.000000
vt  0.700729 -0.426487 0.000000
vt  0.673743 -0.199778 0.000000
vt  0.745896 -0.389735 0.000000
vt  1.001545 -0.196345 0.000000
vt  0.745896 -0.389735 0.000000
vt  0.718256 -0.563351 0.000000
vt  0.456618 -0.491290 0.000000
vt  0.718256 -0.563351 0.000000
vt  0.649756 -0.377373 0.000000
vt  0.879995 -0.322659 0.000000
vt  0.878334 -0.419792 0.000000
vt  0.814993 -0.384158 0.000000
vt  0.840809 -0.488580 0.000000
vt  0.785951 -0.483168 0.000000
vt  0.802817 -0.553046 0.000000
vt  0.768768 -0.551022 0.000000
vt  0.784621 -0.670915 0.000000
vt  0.890147 -0.110405 0.000000
vt  0.877757 -0.179306 0.000000
vt  0.827699 -0.187171 0.000000
vt  0.797121 -0.299135 0.000000
vt  0.846121 -0.121488 0.000000
vt  0.879995 -0.322659 0.000000
vt  0.890147 -0.110405 0.000000
vt  0.903734 -0.171919 0.000000
vt  0.877757 -0.179306 0.000000
vt  0.879995 -0.322659 0.000000
vt  0.943134 -0.338810 0.000000
vt  0.878334 -0.419792 0.000000
vt  0.973761 -0.412571 0.000000
vt  0.955844 -0.453612 0.000000
vt  0.926583 -0.453558 0.000000
vt  0.945696 -0.541527 0.000000
vt  0.934407 -0.543232 0.000000
vt  0.944527 -0.626398 0.000000
vt  0.933238 -0.628102 0.000000
vt  0.902654 -0.113459 0.000000
vt  0.897523 -0.016009 0.000000
vt  0.874265 -0.016842 0.000000
vt  0.894021 -0.440391 0.000000
vt  0.840809 -0.488580 0.000000
vt  0.994740 -0.131176 0.000000
vt  0.897523 -0.016009 0.000000
vt  0.994740 -0.010839 0.000000
vt  0.973761 -0.412571 0.000000
vt  0.943134 -0.338810 0.000000
vt  0.992287 -0.374469 0.000000
vt  0.992287 -0.200854 0.000000
vt  0.903734 -0.171919 0.000000
vt  0.985838 -0.419855 0.000000
vt  0.955844 -0.453612 0.000000
vt  0.970748 -0.461456 0.000000
vt  0.945696 -0.541527 0.000000
vt  0.994740 -0.131176 0.000000
vt  0.902654 -0.113459 0.000000
vt  0.897523 -0.016009 0.000000
vt  0.958229 -0.534336 0.000000
vt  0.957060 -0.619207 0.000000
vt  0.944527 -0.626398 0.000000
vt  0.814993 -0.384158 0.000000
vt  0.801517 -0.336578 0.000000
vt  0.879995 -0.322659 0.000000
vt  0.762187 -0.382207 0.000000
vt  0.721231 -0.338555 0.000000
vt  0.801517 -0.336578 0.000000
vt  0.628444 -0.394711 0.000000
vt  0.628444 -0.349811 0.000000
vt  0.432252 -0.369204 0.000000
vt  0.432252 -0.431593 0.000000
vt  0.797121 -0.299135 0.000000
vt  0.730296 -0.388104 0.000000
vt  0.785787 -0.375119 0.000000
vt  0.705268 -0.326739 0.000000
vt  0.635173 -0.429901 0.000000
vt  0.628444 -0.336590 0.000000
vt  0.438982 -0.457391 0.000000
vt  0.432252 -0.360866 0.000000
vt  0.721231 -0.338555 0.000000
vt  0.705268 -0.326739 0.000000
vt  0.797121 -0.299135 0.000000
vt  0.801517 -0.336578 0.000000
vt  0.879995 -0.322659 0.000000
vt  0.628444 -0.349811 0.000000
vt  0.628444 -0.336590 0.000000
vt  0.705268 -0.326739 0.000000
vt  0.721231 -0.338555 0.000000
vt  0.432252 -0.369204 0.000000
vt  0.432252 -0.360866 0.000000
vt  0.628444 -0.336590 0.000000
vt  0.628444 -0.349811 0.000000
vt  0.771866 -0.466202 0.000000
vt  0.783242 -0.399019 0.000000
vt  0.814993 -0.384158 0.000000
vt  0.785951 -0.483168 0.000000
vt  0.768768 -0.551022 0.000000
vt  0.894021 -0.440391 0.000000
vt  0.855199 -0.503075 0.000000
vt  0.840809 -0.488580 0.000000
vt  0.828086 -0.559615 0.000000
vt  0.768768 -0.551022 0.000000
vt  0.722372 -0.667216 0.000000
vt  0.771866 -0.466202 0.000000
vt  0.784621 -0.670915 0.000000
vt  0.802817 -0.553046 0.000000
vt  0.828086 -0.559615 0.000000
vt  0.926583 -0.453558 0.000000
vt  0.925009 -0.458122 0.000000
vt  0.894021 -0.440391 0.000000
vt  0.934407 -0.543232 0.000000
vt  0.915212 -0.532342 0.000000
vt  0.925009 -0.458122 0.000000
vt  0.926583 -0.453558 0.000000
vt  0.933238 -0.628102 0.000000
vt  0.914042 -0.617213 0.000000
vt  0.803519 -0.029467 0.000000
vt  0.890147 -0.110405 0.000000
vt  0.846121 -0.121488 0.000000
vt  0.874265 -0.016842 0.000000
vt  0.762187 -0.382207 0.000000
vt  0.801517 -0.336578 0.000000
vt  0.814993 -0.384158 0.000000
vt  0.878334 -0.419792 0.000000
vt  0.926583 -0.453558 0.000000
vt  0.894021 -0.440391 0.000000
vt  0.994623 -0.369509 0.000000
vt  0.992147 -0.197851 0.000000
vt  0.826268 -0.320219 0.000000
vt  0.925009 -0.458122 0.000000
vt  0.894021 -0.440391 0.000000
vt  0.894021 -0.440391 0.000000
vt  0.925009 -0.458122 0.000000

vn  -0.359348 0.378076 -0.853187
vn  0.870903 0.073775 -0.485885
vn  0.210407 0.554126 -0.805403
vn  0.175194 0.208603 -0.962181
vn  -0.767297 0.241190 -0.594208
vn  -0.628423 -0.027601 -0.777382
vn  0.591547 0.076770 0.802607
vn  0.866197 0.227259 0.445035
vn  0.772810 -0.160472 -0.614015
vn  0.782541 -0.061165 0.619588
vn  0.950686 0.298903 -0.082790
vn  0.591547 0.076770 0.802607
vn  -0.397017 0.240846 0.885647
vn  0.866197 0.227259 0.445035
vn  0.084889 0.453509 0.887200
vn  0.950686 0.298903 -0.082790
vn  0.175194 0.208603 -0.962181
vn  -0.699719 -0.246166 -0.670668
vn  -0.752517 0.106075 -0.649974
vn  -0.359348 0.378076 -0.853187
vn  -0.767297 0.241190 -0.594208
vn  -0.852160 0.349478 0.389472
vn  -0.628423 -0.027601 -0.777382
vn  0.772810 -0.160472 -0.614015
vn  0.870903 0.073775 -0.485885
vn  0.782541 -0.061165 0.619588
vn  -0.567061 0.112416 0.815968
vn  -0.722421 0.196537 0.662934
vn  0.591547 0.076770 0.802607
vn  0.646482 -0.131724 -0.751472
vn  0.925468 -0.007636 0.378749
vn  0.782541 -0.061165 0.619588
vn  0.772810 -0.160472 -0.614015
vn  -0.620197 -0.075256 -0.780828
vn  0.646482 -0.131724 -0.751472
vn  0.925468 -0.007636 0.378749
vn  -0.414565 0.097527 0.904779
vn  -0.722421 0.196537 0.662934
vn  -0.567061 0.112416 0.815968
vn  -0.628423 -0.027601 -0.777382
vn  -0.767297 0.241190 -0.594208
vn  -0.945286 0.168945 0.279092
vn  -0.752517 0.106075 -0.649974
vn  -0.620197 -0.075256 -0.780828
vn  -0.414565 0.097527 0.904779
vn  -0.852160 0.349478 0.389472
vn  -0.945286 0.168945 0.279092
vn  -0.752517 0.106075 -0.649974
vn  -0.722421 0.196537 0.662934
vn  -0.397017 0.240846 0.885647
vn  0.591547 0.076770 0.802607
vn  -0.397017 0.240846 0.885647
vn  0.084889 0.453509 0.887200
vn  -0.852160 0.349478 0.389472
vn  0.084889 0.453509 0.887200
vn  -0.945286 0.168945 0.279092
vn  0.768875 0.415074 -0.486358
vn  0.755281 0.504908 -0.417873
vn  0.100168 0.587056 -0.803326
vn  0.966828 -0.045054 0.251425
vn  -0.053551 0.390264 -0.919144
vn  0.999553 -0.002278 0.029801
vn  0.212807 0.285870 -0.934340
vn  0.560032 -0.828244 -0.019385
vn  0.157373 0.466418 -0.870453
vn  0.206916 0.394458 -0.895315
vn  -0.679043 -0.462124 0.570387
vn  -0.203977 0.223471 -0.953129
vn  -0.046545 -0.948704 0.312720
vn  0.768875 0.415074 -0.486358
vn  0.157373 0.466418 -0.870453
vn  0.897345 0.219574 0.382831
vn  0.206916 0.394458 -0.895315
vn  0.768875 0.415074 -0.486358
vn  0.542534 0.131627 0.829657
vn  0.755281 0.504908 -0.417873
vn  0.771151 0.483191 0.414551
vn  0.956186 0.291580 -0.026245
vn  0.635353 -0.126881 -0.761727
vn  0.840007 -0.062577 0.538956
vn  0.223633 0.227727 -0.947697
vn  0.715862 -0.000000 0.698242
vn  0.228434 0.000000 -0.973559
vn  0.838057 0.476665 0.265426
vn  0.529798 0.657300 0.535977
vn  0.129493 0.557135 -0.820264
vn  0.425035 -0.851657 -0.306637
vn  0.966828 -0.045054 0.251425
vn  -0.046545 -0.948704 0.312720
vn  0.529798 0.657300 0.535977
vn  0.144870 -0.028270 0.989047
vn  0.771151 0.483191 0.414551
vn  0.542534 0.131627 0.829657
vn  -0.009287 -0.104797 0.994450
vn  -0.679043 -0.462124 0.570387
vn  0.897345 0.219574 0.382831
vn  0.651662 0.383137 0.654632
vn  0.956186 0.291580 -0.026245
vn  0.834367 -0.248385 0.492074
vn  0.840007 -0.062577 0.538956
vn  -0.046545 -0.948704 0.312720
vn  0.838057 0.476665 0.265426
vn  0.529798 0.657300 0.535977
vn  -0.967297 -0.024786 0.252433
vn  -0.902298 -0.000000 0.431114
vn  0.715862 -0.000000 0.698242
vn  0.100168 0.587056 -0.803326
vn  0.175788 0.461659 -0.869465
vn  0.768875 0.415074 -0.486358
vn  0.059297 -0.655205 0.753120
vn  0.389211 0.420724 -0.819455
vn  0.175788 0.461659 -0.869465
vn  0.701788 0.117685 0.702598
vn  0.510475 0.222181 -0.830693
vn  0.296740 -0.298479 -0.907114
vn  0.256533 -0.032738 0.965981
vn  -0.203977 0.223471 -0.953129
vn  0.059297 -0.655205 0.753120
vn  -0.780692 -0.486556 0.392152
vn  -0.961365 -0.043846 -0.271762
vn  0.701788 0.117685 0.702598
vn  -0.852033 -0.059975 -0.520041
vn  0.256533 -0.032738 0.965981
vn  -0.999723 0.006818 0.022536
vn  0.389211 0.420724 -0.819455
vn  -0.961365 -0.043846 -0.271762
vn  -0.203977 0.223471 -0.953129
vn  0.175788 0.461659 -0.869465
vn  0.768875 0.415074 -0.486358
vn  0.510475 0.222181 -0.830693
vn  -0.852033 -0.059975 -0.520041
vn  -0.961365 -0.043846 -0.271762
vn  0.389211 0.420724 -0.819455
vn  0.296740 -0.298479 -0.907114
vn  -0.999723 0.006818 0.022536
vn  -0.852033 -0.059975 -0.520041
vn  0.510475 0.222181 -0.830693
vn  -0.841433 -0.449587 0.299769
vn  0.425035 -0.851657 -0.306637
vn  0.100168 0.587056 -0.803326
vn  -0.053551 0.390264 -0.919144
vn  0.212807 0.285870 -0.934340
vn  0.425035 -0.851657 -0.306637
vn  -0.841433 -0.449587 0.299769
vn  0.966828 -0.045054 0.251425
vn  -0.443433 -0.888076 -0.121199
vn  0.212807 0.285870 -0.934340
vn  -0.443433 -0.888076 -0.121199
vn  -0.841433 -0.449587 0.299769
vn  0.560032 -0.828244 -0.019385
vn  0.999553 -0.002278 0.029801
vn  -0.443433 -0.888076 -0.121199
vn  0.635353 -0.126881 -0.761727
vn  0.834367 -0.248385 0.492074
vn  0.425035 -0.851657 -0.306637
vn  0.223633 0.227727 -0.947697
vn  -0.967297 -0.024786 0.252433
vn  0.834367 -0.248385 0.492074
vn  0.635353 -0.126881 -0.761727
vn  0.228434 0.000000 -0.973559
vn  -0.902298 -0.000000 0.431114
vn  -0.216610 -0.233955 -0.947811
vn  0.157373 0.466418 -0.870453
vn  -0.046545 -0.948704 0.312720
vn  0.129493 0.557135 -0.820264
vn  0.059297 -0.655205 0.753120
vn  0.175788 0.461659 -0.869465
vn  0.100168 0.587056 -0.803326
vn  0.755281 0.504908 -0.417873
vn  0.635353 -0.126881 -0.761727
vn  0.425035 -0.851657 -0.306637
vn  -0.777694 -0.500168 0.380819
vn  -0.777694 -0.500168 0.380819
vn  -0.777694 -0.500168 0.380819
vn  -0.449818 -0.889790 -0.077057
vn  -0.449818 -0.889790 -0.077057
vn  -0.449818 -0.889790 -0.077057
vn  -0.449818 -0.889790 -0.077057

g Object57_Pivot01
usemtl Temple Run Trees Material
f  1/1/1 2/2/2 3/3/3
f  3/3/3 4/4/4 1/1/1
f  5/5/5 2/2/2 1/1/1
f  5/5/5 6/6/6 2/2/2
f  2/2/2 7/7/7 8/8/8
f  3/3/3 2/2/2 8/8/8
f  2/2/2 9/9/9 7/7/7
f  9/9/9 10/10/10 7/7/7
f  11/11/11 4/4/4 3/3/3
f  8/8/8 11/11/11 3/3/3
f  12/12/12 13/13/13 14/14/14
f  13/13/13 15/15/15 14/14/14
f  15/15/15 16/16/16 14/14/14
f  17/17/17 18/18/18 19/19/19
f  20/20/20 17/17/17 19/19/19
f  19/19/19 21/21/21 20/20/20
f  18/18/18 22/22/22 19/19/19
f  23/23/23 24/24/24 25/25/25
f  26/26/26 27/27/27 28/28/28
f  29/29/29 26/26/26 28/28/28
f  30/30/30 31/31/31 32/32/32
f  33/33/33 30/30/30 32/32/32
f  23/23/23 34/34/34 24/24/24
f  34/34/34 35/35/35 24/24/24
f  26/26/26 36/36/36 27/27/27
f  36/36/36 37/37/37 27/27/27
f  38/38/38 39/39/39 40/40/40
f  41/41/41 38/38/38 40/40/40
f  42/42/42 38/38/38 41/41/41
f  43/43/43 42/42/42 41/41/41
f  40/40/40 39/39/39 44/44/44
f  39/39/39 45/45/45 44/44/44
f  46/46/46 47/47/47 48/48/48
f  49/49/49 50/50/50 51/51/51
f  42/42/42 52/52/52 38/38/38
f  42/42/42 53/53/53 52/52/52
f  54/54/54 55/55/55 56/56/56
f  57/57/57 58/58/58 59/59/59
f  58/58/58 60/60/60 59/59/59
f  60/60/60 61/61/61 59/59/59
f  60/60/60 62/62/62 61/61/61
f  62/62/62 63/63/63 61/61/61
f  62/62/62 64/64/64 63/63/63
f  65/65/65 66/66/66 67/67/67
f  68/68/68 67/67/67 66/66/66
f  69/69/69 65/65/65 67/67/67
f  70/70/70 68/68/68 66/66/66
f  71/71/71 72/72/72 73/73/73
f  74/74/74 73/73/73 72/72/72
f  75/75/75 74/74/74 72/72/72
f  75/75/75 76/76/76 74/74/74
f  77/77/77 76/76/76 75/75/75
f  77/77/77 78/78/78 76/76/76
f  78/78/78 79/79/79 76/76/76
f  78/78/78 80/80/80 79/79/79
f  80/80/80 81/81/81 79/79/79
f  80/80/80 82/82/82 81/81/81
f  82/82/82 83/83/83 81/81/81
f  84/84/84 72/72/72 71/71/71
f  85/85/85 84/84/84 71/71/71
f  86/86/86 85/85/85 71/71/71
f  76/76/76 87/87/87 88/88/88
f  89/89/89 90/90/90 91/91/91
f  92/92/92 93/93/93 94/94/94
f  94/94/94 93/93/93 95/95/95
f  93/93/93 96/96/96 95/95/95
f  97/97/97 92/92/92 94/94/94
f  92/92/92 97/97/97 98/98/98
f  97/97/97 99/99/99 98/98/98
f  99/99/99 100/100/100 98/98/98
f  95/95/95 96/96/96 101/101/101
f  96/96/96 102/102/102 101/101/101
f  102/102/102 103/103/103 101/101/101
f  104/104/104 100/100/100 99/99/99
f  104/104/104 105/105/105 100/100/100
f  105/105/105 106/106/106 100/100/100
f  107/107/107 108/108/108 109/109/109
f  110/110/110 111/111/111 112/112/112
f  110/110/110 113/113/113 111/111/111
f  113/113/113 114/114/114 111/111/111
f  113/113/113 115/115/115 114/114/114
f  116/116/116 115/115/115 113/113/113
f  117/117/117 118/118/118 119/119/119
f  120/120/120 118/118/118 117/117/117
f  120/120/120 121/121/121 118/118/118
f  122/122/122 121/121/121 120/120/120
f  122/122/122 123/123/123 121/121/121
f  124/124/124 123/123/123 122/122/122
f  125/125/125 126/126/126 127/127/127
f  128/128/128 125/125/125 127/127/127
f  129/129/129 128/128/128 127/127/127
f  130/130/130 131/131/131 132/132/132
f  133/133/133 130/130/130 132/132/132
f  134/134/134 135/135/135 136/136/136
f  137/137/137 134/134/134 136/136/136
f  138/138/138 139/139/139 140/140/140
f  141/141/141 138/138/138 140/140/140
f  141/141/141 142/142/142 138/138/138
f  143/143/143 144/144/144 145/145/145
f  144/144/144 146/146/146 145/145/145
f  147/147/147 148/148/148 149/149/149
f  150/150/150 148/148/148 147/147/147
f  146/146/146 151/151/151 145/145/145
f  152/152/152 64/64/64 62/62/62
f  153/153/153 154/154/154 155/155/155
f  156/156/156 157/157/157 158/158/158
f  159/159/159 156/156/156 158/158/158
f  156/156/156 160/160/160 157/157/157
f  160/160/160 161/161/161 157/157/157
f  162/162/162 163/163/163 164/164/164
f  165/165/165 163/163/163 162/162/162
f  166/166/166 167/167/167 168/168/168
f  169/169/169 170/170/170 171/171/171
f  172/172/172 173/173/173 174/174/174
f  175/175/175 176/176/176 177/177/177
f  178/178/178 175/175/175 177/177/177

g
