# Noesis .obj export.
#
mtllib treeAlone4_prefab.mtl
g
v  -21.169861 -8.125368 -0.761226
v  -11.582216 18.847635 -9.978329
v  -21.063173 -7.898821 -10.425593
v  -4.991638 18.212427 1.084841
v  -30.440123 -35.050377 7.238287
v  -22.992619 -33.761154 -19.171320
v  -15.034428 -4.082771 -21.327023
v  -7.332217 18.068838 -15.394956
v  -15.055848 61.951363 -6.123837
v  -10.433107 61.104225 -12.015744
v  2.733827 56.754101 7.782960
v  -7.332217 18.068838 -15.394956
v  8.193905 -6.103439 -23.813416
v  -15.034428 -4.082771 -21.327023
v  10.102596 -32.612206 -26.388123
v  -22.992619 -33.761154 -19.171320
v  -30.440123 -35.050377 7.238287
v  -18.436949 -32.851837 8.419744
v  -10.804808 -13.095808 10.347964
v  -21.169861 -8.125368 -0.761226
v  -4.991638 18.212427 1.084841
v  16.286194 -32.942444 -2.938050
v  2.733827 56.754101 7.782960
v  -15.055848 61.951363 -6.123837
v  -11.582216 18.847635 -9.978329
v  -10.433107 61.104225 -12.015744
v  11.025451 52.059452 -4.517029
v  0.587218 16.054461 -6.429381
v  -7.332217 18.068838 -15.394956
v  -28.277649 147.176224 -1.453851
v  -23.654726 146.329086 -7.345820
v  -10.433107 61.104225 -12.015744
v  -15.055848 61.951363 -6.123837
v  -10.175840 148.204361 12.507815
v  -28.277649 147.176224 -1.453851
v  -23.654726 146.329086 -7.345820
v  -1.884094 143.509705 0.207827
v  0.587218 16.054461 -6.429381
v  11.025451 52.059452 -4.517029
v  2.733827 56.754101 7.782960
v  -4.991638 18.212427 1.084841
v  0.978027 -18.172417 -2.399352
v  -10.804808 -13.095808 10.347964
v  -10.175840 148.204361 12.507815
v  -1.884094 143.509705 0.207827
v  16.286194 -32.942444 -2.938050
v  0.978027 -18.172417 -2.399352
v  -10.804808 -13.095808 10.347964
v  0.587218 16.054461 -6.429381
v  8.193905 -6.103439 -23.813416
v  -7.332217 18.068838 -15.394956
v  8.193905 -6.103439 -23.813416
v  10.102596 -32.612206 -26.388123
v  16.286194 -32.942444 -2.938050
v  10.102596 -32.612206 -26.388123
v  0.978027 -18.172417 -2.399352
v  17.671938 6.843746 10.289916
v  24.332460 -4.614359 10.882811
v  21.529480 -1.448526 5.126280
v  28.353334 -13.123718 7.815610
v  29.256653 -12.434681 1.830258
v  32.481384 -20.867657 4.675595
v  32.943604 -20.515007 1.612240
v  31.905273 -37.443130 0.606442
v  10.980532 41.044113 13.694031
v  18.537905 27.092165 15.570861
v  2.713808 18.875034 14.227479
v  17.671938 6.843746 10.289916
v  7.343812 3.954536 4.120484
v  -0.073912 27.654812 11.933779
v  2.584534 59.818794 2.143861
v  9.981753 41.283112 17.327087
v  15.131657 28.234447 23.536438
v  18.537905 27.092165 15.570861
v  17.671938 6.843746 10.289916
v  10.980532 41.044113 13.694031
v  -0.110900 60.437820 4.700929
v  2.584534 59.818794 2.143861
v  13.943057 1.886997 16.927551
v  24.332460 -4.614359 10.882811
v  19.936039 -7.228079 20.438536
v  23.880312 -9.677429 18.016233
v  25.038515 -9.103958 15.364683
v  25.732853 -20.877090 18.987669
v  27.404421 -20.476192 16.156675
v  25.732853 -32.111942 18.987730
v  27.404421 -31.711044 16.156675
v  23.109316 -8.649899 12.456541
v  28.353334 -13.123718 7.815610
v  -0.073912 27.654812 11.933779
v  -0.110900 60.437820 4.700929
v  -0.556091 34.690018 -0.902525
v  19.936039 -7.228079 20.438536
v  13.943057 1.886997 16.927551
v  6.556582 -4.420973 16.503235
v  2.713808 18.875034 14.227479
v  15.131657 28.234447 23.536438
v  16.766911 -10.706766 21.856199
v  23.880312 -9.677429 18.016233
v  20.701237 -13.063702 19.516050
v  25.732853 -20.877090 18.987669
v  -0.073912 27.654812 11.933779
v  9.981753 41.283112 17.327087
v  -0.110900 60.437820 4.700929
v  23.402040 -21.081245 16.323240
v  23.402040 -32.316109 16.323240
v  25.732853 -32.111942 18.987730
v  21.529480 -1.448526 5.126280
v  15.249574 2.292118 3.473083
v  17.671938 6.843746 10.289916
v  13.563539 -7.536200 3.303161
v  16.790586 -2.039253 -10.920106
v  15.249574 2.292118 3.473083
v  20.024595 -22.193287 -8.793825
v  22.380919 -15.593004 -16.673403
v  19.743223 -37.383293 -14.823122
v  15.393371 -35.691322 -5.571290
v  7.343812 3.954536 4.120484
v  13.563539 -7.536200 3.303161
v  6.556582 -4.420973 16.503235
v  13.653929 -2.021301 -12.714295
v  20.024595 -22.193287 -8.793825
v  18.758116 -15.605415 -18.195498
v  15.393371 -35.691322 -5.571290
v  15.901670 -37.663139 -14.552308
v  16.790586 -2.039253 -10.920106
v  13.653929 -2.021301 -12.714295
v  7.343812 3.954536 4.120484
v  15.249574 2.292118 3.473083
v  17.671938 6.843746 10.289916
v  22.380919 -15.593004 -16.673403
v  18.758116 -15.605415 -18.195498
v  13.653929 -2.021301 -12.714295
v  16.790586 -2.039253 -10.920106
v  19.743223 -37.383293 -14.823122
v  15.901670 -37.663139 -14.552308
v  18.758116 -15.605415 -18.195498
v  22.380919 -15.593004 -16.673403
v  25.473513 -15.975487 6.767393
v  23.109316 -8.649899 12.456541
v  21.529480 -1.448526 5.126280
v  29.256653 -12.434681 1.830258
v  32.943604 -20.515007 1.612240
v  23.109316 -8.649899 12.456541
v  25.473513 -15.975487 6.767393
v  28.353334 -13.123718 7.815610
v  30.655823 -37.747169 3.311947
v  32.943604 -20.515007 1.612240
v  30.655823 -37.747169 3.311947
v  25.473513 -15.975487 6.767393
v  31.905273 -37.443130 0.606442
v  32.481384 -20.867657 4.675595
v  30.655823 -37.747169 3.311947
v  25.038515 -9.103958 15.364683
v  20.701237 -13.063702 19.516050
v  23.109316 -8.649899 12.456541
v  27.404421 -20.476192 16.156675
v  23.402040 -21.081245 16.323240
v  20.701237 -13.063702 19.516050
v  25.038515 -9.103958 15.364683
v  27.404421 -31.711044 16.156675
v  23.402040 -32.316109 16.323240
v  13.563539 -7.536200 3.303161
v  15.249574 2.292118 3.473083
v  21.529480 -1.448526 5.126280
v  -0.556091 34.690018 -0.902525
v  2.584534 59.818794 2.143861
v  -0.073912 27.654812 11.933779
v  24.332460 -4.614359 10.882811
v  25.038515 -9.103958 15.364683
v  23.109316 -8.649899 12.456541
v  6.556582 -4.420973 16.503235
v  2.713808 18.875034 14.227479
v  7.343812 3.954536 4.120484
v  16.766911 -10.706766 21.856199
v  6.556582 -4.420973 16.503235
v  23.109316 -8.649899 12.456541
v  20.701237 -13.063702 19.516050

vt  0.807178 -0.406997 0.000000
vt  0.840435 -0.195948 0.000000
vt  0.871260 -0.396174 0.000000
vt  0.742559 -0.195899 0.000000
vt  0.779693 -0.615987 0.000000
vt  0.965743 -0.565111 0.000000
vt  0.985630 -0.352600 0.000000
vt  1.001545 -0.196345 0.000000
vt  0.869206 -0.008315 0.000000
vt  1.003987 -0.008315 0.000000
vt  0.710929 -0.008315 0.000000
vt  1.001545 -0.196345 0.000000
vt  0.745896 -0.389735 0.000000
vt  0.985630 -0.352600 0.000000
vt  0.718256 -0.563351 0.000000
vt  0.965743 -0.565111 0.000000
vt  0.779693 -0.615987 0.000000
vt  0.702260 -0.574479 0.000000
vt  0.700729 -0.426487 0.000000
vt  0.807178 -0.406997 0.000000
vt  0.742559 -0.195899 0.000000
vt  0.456618 -0.491290 0.000000
vt  0.710929 -0.008315 0.000000
vt  0.869206 -0.008315 0.000000
vt  0.840435 -0.195948 0.000000
vt  1.003987 -0.008315 0.000000
vt  0.660315 -0.008315 0.000000
vt  0.673743 -0.199778 0.000000
vt  1.001545 -0.196345 0.000000
vt  0.930235 -0.513523 0.000000
vt  0.977355 -0.513523 0.000000
vt  1.003987 -0.008315 0.000000
vt  0.869206 -0.008315 0.000000
vt  0.771440 -0.513523 0.000000
vt  0.930235 -0.513523 0.000000
vt  0.977355 -0.513523 0.000000
vt  0.667104 -0.513523 0.000000
vt  0.673743 -0.199778 0.000000
vt  0.660315 -0.008315 0.000000
vt  0.710929 -0.008315 0.000000
vt  0.742559 -0.195899 0.000000
vt  0.649756 -0.377373 0.000000
vt  0.700729 -0.426487 0.000000
vt  0.771440 -0.513523 0.000000
vt  0.667104 -0.513523 0.000000
vt  0.456618 -0.491290 0.000000
vt  0.649756 -0.377373 0.000000
vt  0.700729 -0.426487 0.000000
vt  0.673743 -0.199778 0.000000
vt  0.745896 -0.389735 0.000000
vt  1.001545 -0.196345 0.000000
vt  0.745896 -0.389735 0.000000
vt  0.718256 -0.563351 0.000000
vt  0.456618 -0.491290 0.000000
vt  0.718256 -0.563351 0.000000
vt  0.649756 -0.377373 0.000000
vt  0.879995 -0.322659 0.000000
vt  0.878334 -0.419792 0.000000
vt  0.814993 -0.384158 0.000000
vt  0.840809 -0.488580 0.000000
vt  0.785951 -0.483168 0.000000
vt  0.802817 -0.553046 0.000000
vt  0.768768 -0.551022 0.000000
vt  0.784621 -0.670915 0.000000
vt  0.890147 -0.110405 0.000000
vt  0.877757 -0.179306 0.000000
vt  0.827699 -0.187171 0.000000
vt  0.879995 -0.322659 0.000000
vt  0.797121 -0.299135 0.000000
vt  0.846121 -0.121488 0.000000
vt  0.874265 -0.016842 0.000000
vt  0.902654 -0.113459 0.000000
vt  0.903734 -0.171919 0.000000
vt  0.877757 -0.179306 0.000000
vt  0.879995 -0.322659 0.000000
vt  0.890147 -0.110405 0.000000
vt  0.897523 -0.016009 0.000000
vt  0.874265 -0.016842 0.000000
vt  0.943134 -0.338810 0.000000
vt  0.878334 -0.419792 0.000000
vt  0.973761 -0.412571 0.000000
vt  0.955844 -0.453612 0.000000
vt  0.926583 -0.453558 0.000000
vt  0.945696 -0.541527 0.000000
vt  0.934407 -0.543232 0.000000
vt  0.944527 -0.626398 0.000000
vt  0.933238 -0.628102 0.000000
vt  0.894021 -0.440391 0.000000
vt  0.840809 -0.488580 0.000000
vt  0.994740 -0.131176 0.000000
vt  0.897523 -0.016009 0.000000
vt  0.994740 -0.010839 0.000000
vt  0.973761 -0.412571 0.000000
vt  0.943134 -0.338810 0.000000
vt  0.992287 -0.374469 0.000000
vt  0.992287 -0.200854 0.000000
vt  0.903734 -0.171919 0.000000
vt  0.985838 -0.419855 0.000000
vt  0.955844 -0.453612 0.000000
vt  0.970748 -0.461456 0.000000
vt  0.945696 -0.541527 0.000000
vt  0.994740 -0.131176 0.000000
vt  0.902654 -0.113459 0.000000
vt  0.897523 -0.016009 0.000000
vt  0.958229 -0.534336 0.000000
vt  0.957060 -0.619207 0.000000
vt  0.944527 -0.626398 0.000000
vt  0.814993 -0.384158 0.000000
vt  0.801517 -0.336578 0.000000
vt  0.879995 -0.322659 0.000000
vt  0.762187 -0.382207 0.000000
vt  0.721231 -0.338555 0.000000
vt  0.801517 -0.336578 0.000000
vt  0.628444 -0.394711 0.000000
vt  0.628444 -0.349811 0.000000
vt  0.432252 -0.369204 0.000000
vt  0.432252 -0.431593 0.000000
vt  0.797121 -0.299135 0.000000
vt  0.730296 -0.388104 0.000000
vt  0.785787 -0.375119 0.000000
vt  0.705268 -0.326739 0.000000
vt  0.635173 -0.429901 0.000000
vt  0.628444 -0.336590 0.000000
vt  0.438982 -0.457391 0.000000
vt  0.432252 -0.360866 0.000000
vt  0.721231 -0.338555 0.000000
vt  0.705268 -0.326739 0.000000
vt  0.797121 -0.299135 0.000000
vt  0.801517 -0.336578 0.000000
vt  0.879995 -0.322659 0.000000
vt  0.628444 -0.349811 0.000000
vt  0.628444 -0.336590 0.000000
vt  0.705268 -0.326739 0.000000
vt  0.721231 -0.338555 0.000000
vt  0.432252 -0.369204 0.000000
vt  0.432252 -0.360866 0.000000
vt  0.628444 -0.336590 0.000000
vt  0.628444 -0.349811 0.000000
vt  0.771866 -0.466202 0.000000
vt  0.783242 -0.399019 0.000000
vt  0.814993 -0.384158 0.000000
vt  0.785951 -0.483168 0.000000
vt  0.768768 -0.551022 0.000000
vt  0.894021 -0.440391 0.000000
vt  0.855199 -0.503075 0.000000
vt  0.840809 -0.488580 0.000000
vt  0.828086 -0.559615 0.000000
vt  0.768768 -0.551022 0.000000
vt  0.722372 -0.667216 0.000000
vt  0.771866 -0.466202 0.000000
vt  0.784621 -0.670915 0.000000
vt  0.802817 -0.553046 0.000000
vt  0.828086 -0.559615 0.000000
vt  0.926583 -0.453558 0.000000
vt  0.925009 -0.458122 0.000000
vt  0.894021 -0.440391 0.000000
vt  0.934407 -0.543232 0.000000
vt  0.915212 -0.532342 0.000000
vt  0.925009 -0.458122 0.000000
vt  0.926583 -0.453558 0.000000
vt  0.933238 -0.628102 0.000000
vt  0.914042 -0.617213 0.000000
vt  0.762187 -0.382207 0.000000
vt  0.801517 -0.336578 0.000000
vt  0.814993 -0.384158 0.000000
vt  0.803519 -0.029467 0.000000
vt  0.874265 -0.016842 0.000000
vt  0.846121 -0.121488 0.000000
vt  0.878334 -0.419792 0.000000
vt  0.926583 -0.453558 0.000000
vt  0.894021 -0.440391 0.000000
vt  0.994623 -0.369509 0.000000
vt  0.992147 -0.197851 0.000000
vt  0.826268 -0.320219 0.000000
vt  0.925009 -0.458122 0.000000
vt  0.894021 -0.440391 0.000000
vt  0.894021 -0.440391 0.000000
vt  0.925009 -0.458122 0.000000

vn  -0.844810 0.381916 0.374748
vn  -0.966314 0.248862 -0.065620
vn  -0.935655 0.276420 -0.219412
vn  -0.032612 0.129355 0.991062
vn  -0.854705 0.237951 0.461367
vn  -0.731370 0.108197 -0.673343
vn  -0.547708 0.238643 -0.801914
vn  -0.023611 0.389628 -0.920670
vn  -0.985156 -0.125893 0.116700
vn  -0.239491 0.015982 -0.970767
vn  0.190430 -0.105556 0.976009
vn  -0.023611 0.389628 -0.920670
vn  0.762543 0.240751 -0.600472
vn  -0.547708 0.238643 -0.801914
vn  0.627940 0.342807 -0.698695
vn  -0.731370 0.108197 -0.673343
vn  -0.854705 0.237951 0.461367
vn  0.059764 -0.119811 0.990996
vn  0.070098 0.218806 0.973247
vn  -0.844810 0.381916 0.374748
vn  -0.032612 0.129355 0.991062
vn  0.752407 0.612979 0.241121
vn  0.190430 -0.105556 0.976009
vn  -0.985156 -0.125893 0.116700
vn  -0.966314 0.248862 -0.065620
vn  -0.239491 0.015982 -0.970767
vn  0.958354 -0.086847 -0.272058
vn  0.989071 0.138630 0.050205
vn  -0.023611 0.389628 -0.920670
vn  -0.966865 -0.160861 0.198232
vn  -0.387859 -0.013005 -0.921627
vn  -0.239491 0.015982 -0.970767
vn  -0.985156 -0.125893 0.116700
vn  -0.004734 -0.060084 0.998182
vn  -0.966865 -0.160861 0.198232
vn  -0.387859 -0.013005 -0.921627
vn  0.953603 0.148156 -0.262090
vn  0.989071 0.138630 0.050205
vn  0.958354 -0.086847 -0.272058
vn  0.190430 -0.105556 0.976009
vn  -0.032612 0.129355 0.991062
vn  0.841583 0.398694 0.364392
vn  0.070098 0.218806 0.973247
vn  -0.004734 -0.060084 0.998182
vn  0.953603 0.148156 -0.262090
vn  0.752407 0.612979 0.241121
vn  0.841583 0.398694 0.364392
vn  0.070098 0.218806 0.973247
vn  0.989071 0.138630 0.050205
vn  0.762543 0.240751 -0.600472
vn  -0.023611 0.389628 -0.920670
vn  0.762543 0.240751 -0.600472
vn  0.627940 0.342807 -0.698695
vn  0.752407 0.612979 0.241121
vn  0.627940 0.342807 -0.698695
vn  0.841583 0.398694 0.364392
vn  0.814346 0.530860 -0.234580
vn  0.881441 0.424296 0.207448
vn  0.616521 0.451290 -0.645166
vn  0.728012 0.081877 0.680657
vn  0.363259 0.334382 -0.869616
vn  0.838915 0.063998 0.540487
vn  0.580279 0.160202 -0.798506
vn  0.182151 -0.775455 -0.604558
vn  0.865861 0.254794 -0.430540
vn  0.897683 0.158372 -0.411198
vn  -0.964756 0.233190 -0.121936
vn  0.814346 0.530860 -0.234580
vn  -0.411702 0.488779 -0.769154
vn  -0.871141 -0.335238 -0.358788
vn  0.890390 0.410078 0.197591
vn  0.187005 0.554394 0.810972
vn  0.306726 0.157844 0.938618
vn  0.897683 0.158372 -0.411198
vn  0.814346 0.530860 -0.234580
vn  0.865861 0.254794 -0.430540
vn  0.125174 0.643021 0.755549
vn  0.890390 0.410078 0.197591
vn  0.263094 0.200902 0.943621
vn  0.881441 0.424296 0.207448
vn  0.386973 0.370197 0.844515
vn  0.694683 0.291577 0.657570
vn  0.987884 -0.126885 -0.089359
vn  0.212866 -0.062578 0.975075
vn  0.828259 0.227725 -0.511985
vn  0.012430 -0.000000 0.999923
vn  0.849946 -0.000000 -0.526870
vn  0.517757 -0.854367 0.044552
vn  0.728012 0.081877 0.680657
vn  -0.871141 -0.335238 -0.358788
vn  0.125174 0.643021 0.755549
vn  -0.999085 0.008137 0.041989
vn  0.386973 0.370197 0.844515
vn  0.263094 0.200902 0.943621
vn  -0.173765 0.195372 0.965213
vn  -0.964756 0.233190 -0.121936
vn  0.306726 0.157844 0.938618
vn  0.140369 0.264951 0.953990
vn  0.694683 0.291577 0.657570
vn  0.242005 -0.248393 0.937942
vn  0.212866 -0.062578 0.975075
vn  -0.871141 -0.335238 -0.358788
vn  0.187005 0.554394 0.810972
vn  0.125174 0.643021 0.755549
vn  -0.862474 -0.024784 -0.505494
vn  -0.942857 0.000000 -0.333197
vn  0.012430 -0.000000 0.999923
vn  0.616521 0.451290 -0.645166
vn  0.495028 0.648924 -0.577794
vn  0.814346 0.530860 -0.234580
vn  -0.400833 -0.771848 -0.493542
vn  0.721523 0.642641 -0.257714
vn  0.495028 0.648924 -0.577794
vn  0.223864 0.168411 0.959960
vn  0.890323 0.186717 -0.415286
vn  0.731026 -0.280277 -0.622130
vn  -0.416353 0.014204 0.909092
vn  -0.411702 0.488779 -0.769154
vn  -0.400833 -0.771848 -0.493542
vn  -0.836143 -0.428206 -0.342790
vn  -0.523657 0.474046 -0.707858
vn  0.223864 0.168411 0.959960
vn  -0.414331 0.071859 -0.907285
vn  -0.416353 0.014204 0.909092
vn  -0.735070 -0.016756 -0.677784
vn  0.721523 0.642641 -0.257714
vn  -0.523657 0.474046 -0.707858
vn  -0.411702 0.488779 -0.769154
vn  0.495028 0.648924 -0.577794
vn  0.814346 0.530860 -0.234580
vn  0.890323 0.186717 -0.415286
vn  -0.414331 0.071859 -0.907285
vn  -0.523657 0.474046 -0.707858
vn  0.721523 0.642641 -0.257714
vn  0.731026 -0.280277 -0.622130
vn  -0.735070 -0.016756 -0.677784
vn  -0.414331 0.071859 -0.907285
vn  0.890323 0.186717 -0.415286
vn  -0.820794 -0.534682 0.201028
vn  0.517757 -0.854367 0.044552
vn  0.616521 0.451290 -0.645166
vn  0.363259 0.334382 -0.869616
vn  0.580279 0.160202 -0.798506
vn  0.517757 -0.854367 0.044552
vn  -0.820794 -0.534682 0.201028
vn  0.728012 0.081877 0.680657
vn  -0.152651 -0.966960 0.204173
vn  0.580279 0.160202 -0.798506
vn  -0.152651 -0.966960 0.204173
vn  -0.820794 -0.534682 0.201028
vn  0.182151 -0.775455 -0.604558
vn  0.838915 0.063998 0.540487
vn  -0.152651 -0.966960 0.204173
vn  0.987884 -0.126885 -0.089359
vn  0.242005 -0.248393 0.937942
vn  0.517757 -0.854367 0.044552
vn  0.828259 0.227725 -0.511985
vn  -0.862474 -0.024784 -0.505494
vn  0.242005 -0.248393 0.937942
vn  0.987884 -0.126885 -0.089359
vn  0.849946 -0.000000 -0.526870
vn  -0.942857 0.000000 -0.333197
vn  -0.400833 -0.771848 -0.493542
vn  0.495028 0.648924 -0.577794
vn  0.616521 0.451290 -0.645166
vn  0.988867 -0.111667 -0.098347
vn  0.890390 0.410078 0.197591
vn  -0.871141 -0.335238 -0.358788
vn  0.881441 0.424296 0.207448
vn  0.987884 -0.126885 -0.089359
vn  0.517757 -0.854367 0.044552
vn  -0.967297 -0.177281 -0.181406
vn  -0.967297 -0.177281 -0.181406
vn  -0.967297 -0.177281 -0.181406
vn  -0.396634 -0.803733 -0.443504
vn  -0.396634 -0.803733 -0.443504
vn  -0.396634 -0.803733 -0.443504
vn  -0.396634 -0.803733 -0.443504

g Object06-Pivot
usemtl Temple Run Trees Material
f  1/1/1 2/2/2 3/3/3
f  4/4/4 2/2/2 1/1/1
f  3/3/3 5/5/5 1/1/1
f  6/6/6 5/5/5 3/3/3
f  3/3/3 2/2/2 7/7/7
f  7/7/7 6/6/6 3/3/3
f  2/2/2 8/8/8 7/7/7
f  2/2/2 9/9/9 8/8/8
f  9/9/9 10/10/10 8/8/8
f  4/4/4 11/11/11 2/2/2
f  12/12/12 13/13/13 14/14/14
f  13/13/13 15/15/15 14/14/14
f  15/15/15 16/16/16 14/14/14
f  17/17/17 18/18/18 19/19/19
f  20/20/20 17/17/17 19/19/19
f  19/19/19 21/21/21 20/20/20
f  18/18/18 22/22/22 19/19/19
f  23/23/23 24/24/24 25/25/25
f  26/26/26 27/27/27 28/28/28
f  29/29/29 26/26/26 28/28/28
f  30/30/30 31/31/31 32/32/32
f  33/33/33 30/30/30 32/32/32
f  23/23/23 34/34/34 24/24/24
f  34/34/34 35/35/35 24/24/24
f  26/26/26 36/36/36 27/27/27
f  36/36/36 37/37/37 27/27/27
f  38/38/38 39/39/39 40/40/40
f  41/41/41 38/38/38 40/40/40
f  42/42/42 38/38/38 41/41/41
f  43/43/43 42/42/42 41/41/41
f  40/40/40 39/39/39 44/44/44
f  39/39/39 45/45/45 44/44/44
f  46/46/46 47/47/47 48/48/48
f  49/49/49 50/50/50 51/51/51
f  42/42/42 52/52/52 38/38/38
f  42/42/42 53/53/53 52/52/52
f  54/54/54 55/55/55 56/56/56
f  57/57/57 58/58/58 59/59/59
f  58/58/58 60/60/60 59/59/59
f  60/60/60 61/61/61 59/59/59
f  60/60/60 62/62/62 61/61/61
f  62/62/62 63/63/63 61/61/61
f  62/62/62 64/64/64 63/63/63
f  65/65/65 66/66/66 67/67/67
f  68/68/68 67/67/67 66/66/66
f  69/69/69 67/67/67 68/68/68
f  70/70/70 65/65/65 67/67/67
f  71/71/71 65/65/65 70/70/70
f  72/72/72 73/73/73 74/74/74
f  75/75/75 74/74/74 73/73/73
f  76/76/76 72/72/72 74/74/74
f  77/77/77 72/72/72 76/76/76
f  78/78/78 77/77/77 76/76/76
f  79/79/79 75/75/75 73/73/73
f  79/79/79 80/80/80 75/75/75
f  81/81/81 80/80/80 79/79/79
f  81/81/81 82/82/82 80/80/80
f  82/82/82 83/83/83 80/80/80
f  82/82/82 84/84/84 83/83/83
f  84/84/84 85/85/85 83/83/83
f  84/84/84 86/86/86 85/85/85
f  86/86/86 87/87/87 85/85/85
f  80/80/80 88/88/88 89/89/89
f  90/90/90 91/91/91 92/92/92
f  93/93/93 94/94/94 95/95/95
f  95/95/95 94/94/94 96/96/96
f  94/94/94 97/97/97 96/96/96
f  98/98/98 93/93/93 95/95/95
f  93/93/93 98/98/98 99/99/99
f  98/98/98 100/100/100 99/99/99
f  100/100/100 101/101/101 99/99/99
f  96/96/96 97/97/97 102/102/102
f  97/97/97 103/103/103 102/102/102
f  103/103/103 104/104/104 102/102/102
f  105/105/105 101/101/101 100/100/100
f  105/105/105 106/106/106 101/101/101
f  106/106/106 107/107/107 101/101/101
f  108/108/108 109/109/109 110/110/110
f  111/111/111 112/112/112 113/113/113
f  111/111/111 114/114/114 112/112/112
f  114/114/114 115/115/115 112/112/112
f  114/114/114 116/116/116 115/115/115
f  117/117/117 116/116/116 114/114/114
f  118/118/118 119/119/119 120/120/120
f  121/121/121 119/119/119 118/118/118
f  121/121/121 122/122/122 119/119/119
f  123/123/123 122/122/122 121/121/121
f  123/123/123 124/124/124 122/122/122
f  125/125/125 124/124/124 123/123/123
f  126/126/126 127/127/127 128/128/128
f  129/129/129 126/126/126 128/128/128
f  130/130/130 129/129/129 128/128/128
f  131/131/131 132/132/132 133/133/133
f  134/134/134 131/131/131 133/133/133
f  135/135/135 136/136/136 137/137/137
f  138/138/138 135/135/135 137/137/137
f  139/139/139 140/140/140 141/141/141
f  142/142/142 139/139/139 141/141/141
f  142/142/142 143/143/143 139/139/139
f  144/144/144 145/145/145 146/146/146
f  145/145/145 147/147/147 146/146/146
f  148/148/148 149/149/149 150/150/150
f  151/151/151 149/149/149 148/148/148
f  147/147/147 152/152/152 146/146/146
f  153/153/153 64/64/64 62/62/62
f  154/154/154 155/155/155 156/156/156
f  157/157/157 158/158/158 159/159/159
f  160/160/160 157/157/157 159/159/159
f  157/157/157 161/161/161 158/158/158
f  161/161/161 162/162/162 158/158/158
f  163/163/163 164/164/164 165/165/165
f  166/166/166 167/167/167 168/168/168
f  169/169/169 170/170/170 171/171/171
f  172/172/172 173/173/173 174/174/174
f  175/175/175 176/176/176 177/177/177
f  178/178/178 175/175/175 177/177/177

g
