# Noesis .obj export.
#
mtllib treeTripUpHorz_prefab.mtl
g
v  5.481569 -0.132928 9.146789
v  2.735839 1.389174 -2.751343
v  1.575073 2.477665 -3.667908
v  0.319700 -0.562108 -11.676880
v  2.992799 4.018350 4.121765
v  6.879519 8.794317 13.255675
v  0.992554 3.983972 4.306458
v  1.575073 2.477665 -3.667908
v  0.078735 1.524686 -3.667908
v  0.319700 -0.562108 -11.676880
v  2.992799 4.018350 4.121765
v  4.171023 10.300480 15.548156
v  -1.359254 0.046650 -3.547546
v  0.079470 0.030527 12.751099
v  0.319700 -0.562108 -11.676880
v  6.879519 8.794317 13.255675
v  4.605350 11.610088 18.332397
v  -8.933956 -0.785132 21.268129
v  13.674930 10.582638 18.826414
v  -0.277704 10.772075 38.299316
v  -23.950804 -32.913898 17.156986
v  -7.591913 -1.631660 40.540039
v  -21.629265 -30.715359 42.713566
v  12.504519 -2.231487 12.658018
v  5.481569 -0.132928 9.146789
v  6.879519 8.794317 13.255675
v  13.674930 10.582638 18.826414
v  13.674930 10.582638 18.826414
v  16.250004 0.170446 27.825132
v  12.504519 -2.231487 12.658018
v  25.040897 -30.475727 19.941341
v  13.618537 7.925125 41.975094
v  9.658576 -2.544064 43.912354
v  9.239873 74.265305 33.015564
v  13.275521 68.760834 52.169613
v  11.055794 -30.805965 50.758057
v  0.170049 75.292755 32.521606
v  9.239873 74.265305 33.015564
v  13.674930 10.582638 18.826414
v  4.605350 11.610088 18.332397
v  -4.712760 74.454742 52.488403
v  0.170049 75.292755 32.521606
v  4.605350 11.610088 18.332397
v  -0.277704 10.772075 38.299316
v  0.170051 154.773560 41.764160
v  9.239875 153.746094 42.258179
v  -4.712759 153.935547 61.731018
v  0.170051 154.773560 41.764160
v  9.239875 153.746094 42.258179
v  13.275522 148.241638 61.412228
v  13.618537 7.925125 41.975094
v  13.275521 68.760834 52.169613
v  -4.712760 74.454742 52.488403
v  -0.277704 10.772075 38.299316
v  9.658576 -2.544064 43.912354
v  -7.591913 -1.631660 40.540039
v  11.055794 -30.805965 50.758057
v  -21.629265 -30.715359 42.713566
v  -4.712759 153.935547 61.731018
v  13.275522 148.241638 61.412228

vt  0.701540 -0.410257 0.000000
vt  0.578146 -0.481116 0.000000
vt  0.573699 -0.415843 0.000000
vt  0.530596 -0.452853 0.000000
vt  0.618079 -0.403131 0.000000
vt  0.645149 -0.351992 0.000000
vt  0.617660 -0.435605 0.000000
vt  0.575997 -0.413732 0.000000
vt  0.577148 -0.437796 0.000000
vt  0.534999 -0.431401 0.000000
vt  0.617740 -0.405275 0.000000
vt  0.661271 -0.374371 0.000000
vt  0.578146 -0.481116 0.000000
vt  0.679890 -0.472010 0.000000
vt  0.524014 -0.488609 0.000000
vt  0.643907 -0.353979 0.000000
vt  0.738354 -0.325999 0.000000
vt  0.744194 -0.466806 0.000000
vt  0.670109 -0.308195 0.000000
vt  0.863816 -0.325999 0.000000
vt  0.749872 -0.691224 0.000000
vt  0.863816 -0.465369 0.000000
vt  0.863816 -0.691224 0.000000
vt  0.738354 -0.325999 0.000000
vt  0.701540 -0.410257 0.000000
vt  0.645149 -0.351992 0.000000
vt  0.670052 -0.307788 0.000000
vt  0.738354 -0.325999 0.000000
vt  0.745736 -0.466311 0.000000
vt  0.680387 -0.470008 0.000000
vt  0.748803 -0.692660 0.000000
vt  0.863816 -0.325999 0.000000
vt  0.863816 -0.466381 0.000000
vt  0.738354 -0.012071 0.000000
vt  0.863816 -0.012071 0.000000
vt  0.863816 -0.693566 0.000000
vt  0.738354 -0.013712 0.000000
vt  0.670109 -0.013712 0.000000
vt  0.670109 -0.308195 0.000000
vt  0.738354 -0.325999 0.000000
vt  0.863816 -0.013712 0.000000
vt  0.738354 -0.013712 0.000000
vt  0.738354 -0.325999 0.000000
vt  0.863816 -0.325999 0.000000
vt  0.738354 -0.193135 0.000000
vt  0.670109 -0.193135 0.000000
vt  0.863816 -0.193135 0.000000
vt  0.738354 -0.193135 0.000000
vt  0.738354 -0.191793 0.000000
vt  0.863816 -0.193607 0.000000
vt  0.985975 -0.325999 0.000000
vt  0.985975 -0.013712 0.000000
vt  0.863816 -0.013712 0.000000
vt  0.863816 -0.325999 0.000000
vt  0.985975 -0.436902 0.000000
vt  0.863816 -0.465369 0.000000
vt  0.985975 -0.691224 0.000000
vt  0.863816 -0.691224 0.000000
vt  0.863816 -0.193135 0.000000
vt  0.985975 -0.193135 0.000000

vn  0.776539 0.220587 -0.590193
vn  0.737934 0.656994 -0.154313
vn  0.184977 0.932119 -0.311349
vn  -0.294618 0.899659 -0.322202
vn  0.566126 0.718451 -0.404141
vn  0.365014 0.680262 -0.635617
vn  -0.621365 0.770624 -0.141575
vn  0.184977 0.932119 -0.311349
vn  -0.628027 0.755286 -0.187415
vn  -0.294618 0.899659 -0.322202
vn  0.566126 0.718451 -0.404141
vn  -0.504488 0.808799 -0.302219
vn  -0.756433 0.641210 -0.129068
vn  -0.819548 0.458246 -0.344023
vn  -0.294618 0.899659 -0.322202
vn  0.365014 0.680262 -0.635617
vn  -0.517899 0.605591 -0.604186
vn  -0.801975 0.521330 -0.291636
vn  0.792838 0.309781 -0.524828
vn  -0.785952 0.238593 0.570397
vn  -0.894826 0.440259 -0.073885
vn  -0.652793 0.423189 0.628309
vn  -0.756390 0.403548 0.514804
vn  0.817097 0.264823 -0.512076
vn  0.776539 0.220587 -0.590193
vn  0.365014 0.680262 -0.635617
vn  0.792838 0.309781 -0.524828
vn  0.792838 0.309781 -0.524828
vn  0.984511 0.163591 0.063052
vn  0.817097 0.264823 -0.512076
vn  0.951491 0.211040 0.223892
vn  0.666440 -0.011474 0.745470
vn  0.417641 0.164538 0.893590
vn  0.671302 0.130362 -0.729629
vn  0.758745 -0.092851 0.644736
vn  0.412677 0.219304 0.884083
vn  -0.608621 0.107706 -0.786117
vn  0.671302 0.130362 -0.729629
vn  0.792838 0.309781 -0.524828
vn  -0.517899 0.605591 -0.604186
vn  -0.792768 -0.104421 0.600512
vn  -0.608621 0.107706 -0.786117
vn  -0.517899 0.605591 -0.604186
vn  -0.785952 0.238593 0.570397
vn  -0.628502 0.089844 -0.772602
vn  0.606871 0.091807 -0.789480
vn  -0.852521 -0.060376 0.519195
vn  -0.628502 0.089844 -0.772602
vn  0.606871 0.091807 -0.789480
vn  0.735718 -0.078233 0.672755
vn  0.666440 -0.011474 0.745470
vn  0.758745 -0.092851 0.644736
vn  -0.792768 -0.104421 0.600512
vn  -0.785952 0.238593 0.570397
vn  0.417641 0.164538 0.893590
vn  -0.652793 0.423189 0.628309
vn  0.412677 0.219304 0.884083
vn  -0.756390 0.403548 0.514804
vn  -0.852521 -0.060376 0.519195
vn  0.735718 -0.078233 0.672755

g Object100-Pivot
usemtl Temple Run Trees Material
f  1/1/1 2/2/2 3/3/3
f  2/2/2 4/4/4 3/3/3
f  5/5/5 1/1/1 3/3/3
f  6/6/6 1/1/1 5/5/5
f  7/7/7 8/8/8 9/9/9
f  8/8/8 10/10/10 9/9/9
f  11/11/11 8/8/8 7/7/7
f  12/12/12 11/11/11 7/7/7
f  9/9/9 13/13/13 7/7/7
f  12/12/12 7/7/7 14/14/14
f  14/14/14 7/7/7 13/13/13
f  13/13/13 9/9/9 15/15/15
f  16/16/16 11/11/11 12/12/12
f  14/14/14 17/17/17 12/12/12
f  12/12/12 17/17/17 16/16/16
f  18/18/18 17/17/17 14/14/14
f  17/17/17 19/19/19 16/16/16
f  20/20/20 17/17/17 18/18/18
f  14/14/14 21/21/21 18/18/18
f  22/22/22 20/20/20 18/18/18
f  18/18/18 21/21/21 22/22/22
f  21/21/21 23/23/23 22/22/22
f  24/24/24 25/25/25 26/26/26
f  27/27/27 24/24/24 26/26/26
f  28/28/28 29/29/29 30/30/30
f  29/29/29 31/31/31 30/30/30
f  32/32/32 29/29/29 28/28/28
f  33/33/33 29/29/29 32/32/32
f  33/33/33 31/31/31 29/29/29
f  28/28/28 34/34/34 32/32/32
f  34/34/34 35/35/35 32/32/32
f  36/36/36 31/31/31 33/33/33
f  37/37/37 38/38/38 39/39/39
f  40/40/40 37/37/37 39/39/39
f  41/41/41 42/42/42 43/43/43
f  44/44/44 41/41/41 43/43/43
f  37/37/37 45/45/45 38/38/38
f  45/45/45 46/46/46 38/38/38
f  41/41/41 47/47/47 42/42/42
f  47/47/47 48/48/48 42/42/42
f  34/34/34 49/49/49 35/35/35
f  49/49/49 50/50/50 35/35/35
f  51/51/51 52/52/52 53/53/53
f  54/54/54 51/51/51 53/53/53
f  55/55/55 51/51/51 54/54/54
f  56/56/56 55/55/55 54/54/54
f  57/57/57 55/55/55 56/56/56
f  58/58/58 57/57/57 56/56/56
f  53/53/53 52/52/52 59/59/59
f  52/52/52 60/60/60 59/59/59

g
