# Noesis .obj export.
#
mtllib treeAlone2_prefab.mtl
g
v  -4.791686 15.638632 6.125855
v  -14.617491 -6.450872 11.692995
v  -6.614927 -1.683012 12.389710
v  -19.140442 13.624258 -3.973508
v  1.992067 -2.064238 9.381287
v  4.923036 9.733203 6.563415
v  -12.725645 -10.785841 13.818483
v  -5.636655 -9.753538 19.473999
v  -13.056821 -18.773502 20.162844
v  -7.428891 -19.462032 21.588625
v  -8.912290 -34.705425 18.274416
v  -6.510190 -35.160374 19.432863
v  -2.119444 -19.118572 13.754517
v  1.992067 -2.064238 9.381287
v  -5.959167 83.560089 -0.468993
v  -19.140442 13.624258 -3.973508
v  -20.804262 79.021622 -6.801632
v  -1.336366 84.407227 -6.360962
v  -5.959167 83.560089 -0.468993
v  -4.791686 15.638632 6.125855
v  -0.081421 17.870687 -3.112732
v  -12.512637 83.716278 -19.101561
v  -1.336366 84.407227 -6.360962
v  -0.081421 17.870687 -3.112732
v  -10.873354 12.651232 -11.003660
v  -5.253481 161.045929 -14.052855
v  -9.876283 160.198792 -8.160887
v  -16.429752 160.355011 -26.793455
v  -5.253481 161.045929 -14.052855
v  -9.876283 160.198792 -8.160887
v  -24.721376 155.660339 -14.493526
v  -19.140442 13.624258 -3.973508
v  -20.804262 79.021622 -6.801632
v  -12.512637 83.716278 -19.101561
v  -10.873354 12.651232 -11.003660
v  -16.429752 160.355011 -26.793455
v  -24.721376 155.660339 -14.493526
v  -22.761904 -10.655622 -6.765011
v  -19.140442 13.624258 -3.973508
v  -10.873354 12.651232 -11.003660
v  -22.761904 -10.655622 -6.765011
v  -14.617491 -6.450872 11.692995
v  -19.140442 13.624258 -3.973508
v  4.923036 9.733203 6.563415
v  12.417665 5.104282 4.563780
v  -0.081421 17.870687 -3.112732
v  -4.791686 15.638632 6.125855
v  1.992067 -2.064238 9.381287
v  13.387270 4.133363 12.424803
v  4.923036 9.733203 6.563415
v  13.448488 -5.072502 9.599363
v  19.068605 1.022208 9.851865
v  13.448488 -5.072502 9.599363
v  15.854432 -3.178139 4.378721
v  13.387270 4.133363 12.424803
v  19.068605 1.022208 9.851865
v  12.417665 5.104282 4.563780
v  4.923036 9.733203 6.563415
v  17.467777 -9.073072 18.874571
v  21.152651 -9.085907 17.205746
v  14.790651 -14.550995 9.900816
v  17.467777 -9.073072 18.874571
v  13.387270 4.133363 12.424803
v  13.448488 -5.072502 9.599363
v  16.265810 -34.755299 8.777036
v  18.560488 -36.504818 14.805478
v  21.152651 -9.085907 17.205746
v  14.790651 -14.550995 9.900816
v  13.448488 -5.072502 9.599363
v  19.068605 1.022208 9.851865
v  21.191286 -36.794170 13.516538
v  16.265810 -34.755299 8.777036
v  18.560488 -36.504818 14.805478
v  21.191286 -36.794170 13.516538
v  21.152651 -9.085907 17.205746
v  17.467777 -9.073072 18.874571
v  -14.072570 -12.933508 7.101565
v  -9.208434 -20.546505 8.099001
v  -12.725645 -10.785841 13.818483
v  -14.617491 -6.450872 11.692995
v  -7.428891 -19.462032 21.588625
v  -6.304868 -22.503185 15.063966
v  -2.119444 -19.118572 13.754517
v  -5.636655 -9.753538 19.473999
v  -11.932920 -21.814625 13.638308
v  -13.056821 -18.773502 20.162844
v  -12.725645 -10.785841 13.818483
v  -9.208434 -20.546505 8.099001
v  -8.912290 -34.705425 18.274416
v  -6.510190 -35.160374 19.432863
v  -6.065976 -33.736668 17.937500
v  -7.428891 -19.462032 21.588625
v  -6.304868 -22.503185 15.063966
v  -6.973935 -33.281734 18.900637
v  -8.912290 -34.705425 18.274416
v  -11.932920 -21.814625 13.638308
v  -25.351563 -19.753002 1.043766
v  -20.882200 -18.875988 7.104801
v  -14.617491 -6.450872 11.692995
v  -22.761904 -10.655622 -6.765011
v  -27.121458 -31.869633 6.372746
v  -26.016966 -31.421360 9.827824
v  -27.121458 -45.028042 6.372746
v  -26.016966 -44.579769 9.827824
v  -20.882200 -18.875988 7.104801
v  -16.425049 -23.781864 -0.732480
v  -14.072570 -12.933508 7.101565
v  -14.617491 -6.450872 11.692995
v  -22.182558 -16.303907 -12.372311
v  -16.425049 -23.781864 -0.732480
v  -25.351563 -19.753002 1.043766
v  -20.882200 -18.875988 7.104801
v  -18.900145 -31.792141 6.239932
v  -16.425049 -23.781864 -0.732480
v  -26.016966 -31.421360 9.827824
v  -26.016966 -44.579769 9.827824
v  -18.900145 -44.950550 6.239932
v  -18.900145 -31.792141 6.239932
v  -27.121458 -31.869633 6.372746
v  -25.351563 -19.753002 1.043766
v  -16.425049 -23.781864 -0.732480
v  -18.900145 -44.950550 6.239932
v  -27.121458 -45.028042 6.372746
v  -6.096499 0.777674 -16.951963
v  -22.761904 -10.655622 -6.765011
v  -10.873354 12.651232 -11.003660
v  12.417665 5.104282 4.563780
v  19.068605 1.022208 9.851865
v  15.854432 -3.178139 4.378721
v  -5.636655 -9.753538 19.473999
v  -2.119444 -19.118572 13.754517
v  -6.614927 -1.683012 12.389710
v  -22.761904 -10.655622 -6.765011
v  -22.182558 -16.303907 -12.372311
v  -25.351563 -19.753002 1.043766
v  -0.081421 17.870687 -3.112732
v  -6.096499 0.777674 -16.951963
v  -10.873354 12.651232 -11.003660
v  -16.149662 -13.379684 -19.586729
v  -22.182558 -16.303907 -12.372311
v  -22.761904 -10.655622 -6.765011
v  7.825865 -8.268921 -13.064698
v  -3.769900 -13.363676 -18.961548
v  -6.096499 0.777674 -16.951963
v  15.373654 -39.447605 -15.624820
v  12.417665 5.104282 4.563780
v  7.825865 -8.268921 -13.064698
v  -6.096499 0.777674 -16.951963
v  15.854432 -3.178139 4.378721
v  7.825865 -8.268921 -13.064698
v  12.417665 5.104282 4.563780
v  -6.096499 0.777674 -16.951963
v  -16.149662 -13.379684 -19.586729
v  -22.761904 -10.655622 -6.765011
v  -3.769900 -13.363676 -18.961548
v  -16.149662 -13.379684 -19.586729
v  -6.096499 0.777674 -16.951963
v  -10.104983 -41.492847 -18.961546
v  -16.149662 -41.508854 -19.586729
v  -16.149662 -13.379684 -19.586729
v  -16.149662 -41.508854 -19.586729
v  -22.182558 -44.433079 -12.372311
v  -22.182558 -16.303907 -12.372311
v  -16.149662 -13.379684 -19.586729
v  15.854432 -3.178139 4.378721
v  15.373654 -39.447605 -15.624820
v  7.825865 -8.268921 -13.064698
v  15.373654 -39.447605 -15.624820
v  6.005064 -40.689243 -15.760682
v  -3.769900 -13.363676 -18.961548
v  16.225828 -39.557232 -7.352480
v  15.373654 -39.447605 -15.624820
v  15.854432 -3.178139 4.378721
v  -10.104983 -41.492847 -18.961546
v  -3.769900 -13.363676 -18.961548
v  -22.182558 -16.303907 -12.372311
v  16.225828 -39.557232 -7.352480
v  15.854432 -3.178139 4.378721
v  -3.769900 -13.363676 -18.961548
v  12.417665 5.104282 4.563780
v  -6.096499 0.777674 -16.951963
v  -0.081421 17.870687 -3.112732
v  -3.769900 -13.363676 -18.961548
v  -10.104983 -41.492847 -18.961546
v  -16.149662 -13.379684 -19.586729
v  -22.182558 -44.433079 -12.372311
v  -10.104983 -41.492847 -18.961546
v  -22.182558 -16.303907 -12.372311
v  6.005064 -40.689243 -15.760682
v  16.225828 -39.557232 -7.352480
v  -3.769900 -13.363676 -18.961548

vt  0.689656 -0.312278 0.000000
vt  0.729549 -0.493393 0.000000
vt  0.588387 -0.433418 0.000000
vt  0.810666 -0.328377 0.000000
vt  0.545924 -0.411876 0.000000
vt  0.581171 -0.347686 0.000000
vt  0.691465 -0.531794 0.000000
vt  0.628156 -0.508561 0.000000
vt  0.650501 -0.613372 0.000000
vt  0.612385 -0.599557 0.000000
vt  0.606175 -0.709981 0.000000
vt  0.585282 -0.701728 0.000000
vt  0.584200 -0.515695 0.000000
vt  0.559684 -0.400648 0.000000
vt  0.689608 -0.009263 0.000000
vt  0.812264 -0.329284 0.000000
vt  0.812264 -0.000642 0.000000
vt  0.731563 -0.007915 0.000000
vt  0.689608 -0.011406 0.000000
vt  0.689608 -0.313735 0.000000
vt  0.731563 -0.326167 0.000000
vt  0.812264 -0.003078 0.000000
vt  0.731563 -0.007915 0.000000
vt  0.731563 -0.326167 0.000000
vt  0.812264 -0.328884 0.000000
vt  0.731563 -0.171559 0.000000
vt  0.689608 -0.174942 0.000000
vt  0.812264 -0.171559 0.000000
vt  0.731563 -0.171559 0.000000
vt  0.689608 -0.176069 0.000000
vt  0.812264 -0.171559 0.000000
vt  0.958746 -0.327521 0.000000
vt  0.958746 -0.015457 0.000000
vt  0.812264 -0.003078 0.000000
vt  0.812264 -0.328884 0.000000
vt  0.812264 -0.171559 0.000000
vt  0.958746 -0.171559 0.000000
vt  0.870344 -0.501407 0.000000
vt  0.810666 -0.328377 0.000000
vt  0.955985 -0.327760 0.000000
vt  0.870344 -0.501407 0.000000
vt  0.729549 -0.493393 0.000000
vt  0.810666 -0.328377 0.000000
vt  0.581171 -0.347686 0.000000
vt  0.626273 -0.384349 0.000000
vt  0.732039 -0.327774 0.000000
vt  0.689656 -0.312278 0.000000
vt  0.620057 -0.446397 0.000000
vt  0.518870 -0.351905 0.000000
vt  0.594200 -0.343338 0.000000
vt  0.537919 -0.449979 0.000000
vt  0.537310 -0.375739 0.000000
vt  0.551418 -0.463108 0.000000
vt  0.615958 -0.458915 0.000000
vt  0.518870 -0.351905 0.000000
vt  0.537310 -0.375739 0.000000
vt  0.624438 -0.367998 0.000000
vt  0.594200 -0.343338 0.000000
vt  0.436109 -0.361182 0.000000
vt  0.454149 -0.383538 0.000000
vt  0.472420 -0.459143 0.000000
vt  0.436109 -0.361182 0.000000
vt  0.518870 -0.351905 0.000000
vt  0.537919 -0.449979 0.000000
vt  0.372586 -0.531919 0.000000
vt  0.328695 -0.420334 0.000000
vt  0.454149 -0.383538 0.000000
vt  0.488873 -0.473998 0.000000
vt  0.551418 -0.463108 0.000000
vt  0.537310 -0.375739 0.000000
vt  0.334482 -0.444778 0.000000
vt  0.370635 -0.524331 0.000000
vt  0.328695 -0.420334 0.000000
vt  0.334482 -0.444778 0.000000
vt  0.454149 -0.383538 0.000000
vt  0.436109 -0.361182 0.000000
vt  0.742485 -0.534884 0.000000
vt  0.717682 -0.576623 0.000000
vt  0.691465 -0.531794 0.000000
vt  0.729549 -0.493393 0.000000
vt  0.612385 -0.599557 0.000000
vt  0.589878 -0.606269 0.000000
vt  0.584200 -0.515695 0.000000
vt  0.628156 -0.508561 0.000000
vt  0.662575 -0.639538 0.000000
vt  0.650501 -0.613372 0.000000
vt  0.691465 -0.531794 0.000000
vt  0.717682 -0.576623 0.000000
vt  0.606175 -0.709981 0.000000
vt  0.585282 -0.701728 0.000000
vt  0.575656 -0.707621 0.000000
vt  0.612385 -0.599557 0.000000
vt  0.589878 -0.606269 0.000000
vt  0.609527 -0.722963 0.000000
vt  0.606175 -0.709981 0.000000
vt  0.662575 -0.639538 0.000000
vt  0.822401 -0.566475 0.000000
vt  0.788022 -0.563457 0.000000
vt  0.727523 -0.495867 0.000000
vt  0.869073 -0.499619 0.000000
vt  0.827573 -0.658976 0.000000
vt  0.813019 -0.657988 0.000000
vt  0.832185 -0.716655 0.000000
vt  0.815607 -0.715083 0.000000
vt  0.788022 -0.563457 0.000000
vt  0.751617 -0.604049 0.000000
vt  0.710926 -0.537484 0.000000
vt  0.727523 -0.495867 0.000000
vt  0.908551 -0.533743 0.000000
vt  0.872735 -0.590938 0.000000
vt  0.822401 -0.566475 0.000000
vt  0.788022 -0.563457 0.000000
vt  0.780824 -0.660242 0.000000
vt  0.751617 -0.604049 0.000000
vt  0.813019 -0.657988 0.000000
vt  0.815607 -0.715083 0.000000
vt  0.780371 -0.718456 0.000000
vt  0.852955 -0.656231 0.000000
vt  0.827573 -0.658976 0.000000
vt  0.822401 -0.566475 0.000000
vt  0.872735 -0.590938 0.000000
vt  0.858706 -0.716029 0.000000
vt  0.832185 -0.716655 0.000000
vt  0.800519 -0.478739 0.000000
vt  0.894944 -0.519419 0.000000
vt  0.811369 -0.328243 0.000000
vt  0.624438 -0.367998 0.000000
vt  0.537310 -0.375739 0.000000
vt  0.615958 -0.458915 0.000000
vt  0.628156 -0.508561 0.000000
vt  0.584200 -0.515695 0.000000
vt  0.588387 -0.433418 0.000000
vt  0.869073 -0.499619 0.000000
vt  0.908551 -0.533743 0.000000
vt  0.822401 -0.566475 0.000000
vt  0.732132 -0.324604 0.000000
vt  0.800519 -0.478739 0.000000
vt  0.811369 -0.328243 0.000000
vt  0.869885 -0.567140 0.000000
vt  0.940636 -0.566711 0.000000
vt  0.894944 -0.519419 0.000000
vt  0.704117 -0.532688 0.000000
vt  0.788166 -0.571480 0.000000
vt  0.800519 -0.478739 0.000000
vt  0.666806 -0.686495 0.000000
vt  0.649226 -0.414080 0.000000
vt  0.704117 -0.532688 0.000000
vt  0.800519 -0.478739 0.000000
vt  0.627046 -0.467219 0.000000
vt  0.704117 -0.532688 0.000000
vt  0.649226 -0.414080 0.000000
vt  0.800519 -0.478739 0.000000
vt  0.869885 -0.567140 0.000000
vt  0.894944 -0.519419 0.000000
vt  0.788166 -0.571480 0.000000
vt  0.869885 -0.567140 0.000000
vt  0.800519 -0.478739 0.000000
vt  0.829532 -0.701935 0.000000
vt  0.869885 -0.705915 0.000000
vt  0.869885 -0.567140 0.000000
vt  0.869885 -0.705915 0.000000
vt  0.940636 -0.705486 0.000000
vt  0.940636 -0.566711 0.000000
vt  0.869885 -0.567140 0.000000
vt  0.627046 -0.467219 0.000000
vt  0.666806 -0.686495 0.000000
vt  0.704117 -0.532688 0.000000
vt  0.666806 -0.686495 0.000000
vt  0.728172 -0.690059 0.000000
vt  0.788166 -0.571480 0.000000
vt  0.649553 -0.669641 0.000000
vt  0.666806 -0.686495 0.000000
vt  0.627046 -0.467219 0.000000
vt  0.800308 -0.636085 0.000000
vt  0.851432 -0.424656 0.000000
vt  0.707421 -0.441917 0.000000
vt  0.799210 -0.637884 0.000000
vt  0.864226 -0.397094 0.000000
vt  0.703664 -0.433969 0.000000
vt  0.649226 -0.414080 0.000000
vt  0.800519 -0.478739 0.000000
vt  0.732132 -0.324604 0.000000
vt  0.788166 -0.571480 0.000000
vt  0.829532 -0.701935 0.000000
vt  0.869885 -0.567140 0.000000
vt  0.707421 -0.653671 0.000000
vt  0.800308 -0.636085 0.000000
vt  0.707421 -0.441917 0.000000
vt  0.724981 -0.628703 0.000000
vt  0.799210 -0.637884 0.000000
vt  0.703664 -0.433969 0.000000

vn  0.039771 0.411125 0.910711
vn  -0.647544 0.173243 0.742074
vn  0.045238 0.360018 0.931848
vn  -0.983755 0.179416 0.006066
vn  0.098128 0.165992 0.981233
vn  0.292039 0.645775 0.705470
vn  -0.863268 0.122281 0.489710
vn  0.347067 0.498907 0.794126
vn  -0.803189 0.033481 0.594782
vn  0.355853 -0.066970 0.932139
vn  -0.606064 -0.613164 0.506671
vn  0.188290 -0.122791 0.974407
vn  0.812534 -0.135624 0.566916
vn  0.098128 0.165992 0.981233
vn  0.232799 0.090447 0.968310
vn  -0.983755 0.179416 0.006066
vn  -0.959328 -0.014234 0.281934
vn  0.998913 0.043264 -0.017333
vn  0.232799 0.090447 0.968310
vn  0.039771 0.411125 0.910711
vn  0.960439 0.277615 -0.022069
vn  -0.041300 -0.085823 -0.995454
vn  0.998913 0.043264 -0.017333
vn  0.960439 0.277615 -0.022069
vn  -0.374052 0.030005 -0.926922
vn  0.995461 0.042324 -0.085245
vn  0.312923 0.110670 0.943309
vn  0.089373 -0.094941 -0.991463
vn  0.995461 0.042324 -0.085245
vn  0.312923 0.110670 0.943309
vn  -0.978441 -0.029494 0.204412
vn  -0.983755 0.179416 0.006066
vn  -0.959328 -0.014234 0.281934
vn  -0.041300 -0.085823 -0.995454
vn  -0.374052 0.030005 -0.926922
vn  0.089373 -0.094941 -0.991463
vn  -0.978441 -0.029494 0.204412
vn  -0.970477 0.232103 -0.065589
vn  -0.983755 0.179416 0.006066
vn  -0.374052 0.030005 -0.926922
vn  -0.970477 0.232103 -0.065589
vn  -0.647544 0.173243 0.742074
vn  -0.983755 0.179416 0.006066
vn  0.292039 0.645775 0.705470
vn  0.619999 0.782071 -0.062975
vn  0.960439 0.277615 -0.022069
vn  0.039771 0.411125 0.910711
vn  0.098128 0.165992 0.981233
vn  0.136923 0.618853 0.773481
vn  0.292039 0.645775 0.705470
vn  -0.207406 -0.931802 0.297873
vn  0.946927 0.318254 -0.045217
vn  -0.207406 -0.931802 0.297873
vn  0.906456 -0.257526 -0.334690
vn  0.136923 0.618853 0.773481
vn  0.946927 0.318254 -0.045217
vn  0.619999 0.782071 -0.062975
vn  0.292039 0.645775 0.705470
vn  -0.300883 0.141520 0.943102
vn  0.932748 0.212439 0.291291
vn  -0.524311 -0.021793 -0.851248
vn  -0.300883 0.141520 0.943102
vn  0.136923 0.618853 0.773481
vn  -0.207406 -0.931802 0.297873
vn  -0.462334 0.016197 -0.886558
vn  -0.272539 -0.153806 0.949772
vn  0.932748 0.212439 0.291291
vn  -0.524311 -0.021793 -0.851248
vn  -0.207406 -0.931802 0.297873
vn  0.946927 0.318254 -0.045217
vn  0.980816 -0.026360 0.193147
vn  -0.462334 0.016197 -0.886558
vn  -0.272539 -0.153806 0.949772
vn  0.980816 -0.026360 0.193147
vn  0.932748 0.212439 0.291291
vn  -0.300883 0.141520 0.943102
vn  -0.165890 -0.652842 0.739106
vn  -0.953593 -0.229210 -0.195253
vn  -0.863268 0.122281 0.489710
vn  -0.647544 0.173243 0.742074
vn  0.355853 -0.066970 0.932139
vn  0.903306 -0.307630 0.299002
vn  0.812534 -0.135624 0.566916
vn  0.347067 0.498907 0.794126
vn  -0.956106 -0.148718 -0.252475
vn  -0.803189 0.033481 0.594782
vn  -0.863268 0.122281 0.489710
vn  -0.953593 -0.229210 -0.195253
vn  -0.606064 -0.613164 0.506671
vn  0.188290 -0.122791 0.974407
vn  0.963197 0.023475 0.267769
vn  0.355853 -0.066970 0.932139
vn  0.903306 -0.307630 0.299002
vn  0.437776 -0.211680 -0.873810
vn  -0.606064 -0.613164 0.506671
vn  -0.956106 -0.148718 -0.252475
vn  -0.991456 -0.114926 -0.061703
vn  -0.184926 -0.022028 0.982506
vn  -0.647544 0.173243 0.742074
vn  -0.970477 0.232103 -0.065589
vn  -0.872843 0.038796 -0.486456
vn  -0.432051 0.183841 0.882913
vn  -0.781719 0.000000 -0.623631
vn  -0.411651 -0.000000 0.911342
vn  -0.184926 -0.022028 0.982506
vn  0.203529 -0.954078 -0.219798
vn  -0.165890 -0.652842 0.739106
vn  -0.647544 0.173243 0.742074
vn  -0.898624 -0.324179 -0.295606
vn  0.203529 -0.954078 -0.219798
vn  -0.991456 -0.114926 -0.061703
vn  -0.184926 -0.022028 0.982506
vn  0.920636 -0.385521 -0.061673
vn  0.203529 -0.954078 -0.219798
vn  -0.432051 0.183841 0.882913
vn  -0.411651 -0.000000 0.911342
vn  0.949255 -0.000000 -0.314507
vn  0.920636 -0.385521 -0.061673
vn  -0.872843 0.038796 -0.486456
vn  -0.991456 -0.114926 -0.061703
vn  0.203529 -0.954078 -0.219798
vn  0.949255 -0.000000 -0.314507
vn  -0.781719 0.000000 -0.623631
vn  -0.591649 0.158020 -0.790558
vn  -0.970477 0.232103 -0.065589
vn  -0.374052 0.030005 -0.926922
vn  0.619999 0.782071 -0.062975
vn  0.946927 0.318254 -0.045217
vn  0.906456 -0.257526 -0.334690
vn  0.347067 0.498907 0.794126
vn  0.812534 -0.135624 0.566916
vn  0.045238 0.360018 0.931848
vn  -0.970477 0.232103 -0.065589
vn  -0.898624 -0.324179 -0.295606
vn  -0.991456 -0.114926 -0.061703
vn  0.322490 0.524494 -0.787976
vn  0.322490 0.524494 -0.787976
vn  0.322490 0.524494 -0.787976
vn  -0.775924 0.402566 -0.485677
vn  -0.775924 0.402566 -0.485677
vn  -0.775924 0.402566 -0.485677
vn  0.377052 0.190829 -0.906320
vn  0.377052 0.190829 -0.906320
vn  0.377052 0.190829 -0.906320
vn  0.387135 0.168157 -0.906559
vn  0.548988 0.590832 -0.591211
vn  0.548988 0.590832 -0.591211
vn  0.548988 0.590832 -0.591211
vn  0.809607 0.346530 -0.473765
vn  0.809607 0.346530 -0.473765
vn  0.809607 0.346530 -0.473765
vn  -0.676353 0.567637 -0.469398
vn  -0.676353 0.567637 -0.469398
vn  -0.676353 0.567637 -0.469398
vn  0.049685 0.148528 -0.987659
vn  0.049685 0.148528 -0.987659
vn  0.049685 0.148528 -0.987659
vn  0.102878 0.000000 -0.994694
vn  0.102878 0.000000 -0.994694
vn  0.102878 0.000000 -0.994694
vn  -0.767128 0.000000 -0.641494
vn  -0.767128 0.000000 -0.641494
vn  -0.767128 0.000000 -0.641494
vn  -0.767128 0.000000 -0.641494
vn  0.851842 0.244262 -0.463358
vn  0.851842 0.244262 -0.463358
vn  0.851842 0.244262 -0.463358
vn  0.028494 -0.106235 -0.993933
vn  0.028494 -0.106235 -0.993933
vn  0.028494 -0.106235 -0.993933
vn  0.993875 0.042979 -0.101814
vn  0.993875 0.042979 -0.101814
vn  0.993875 0.042979 -0.101814
vn  0.346946 -0.078137 0.934625
vn  0.346946 -0.078137 0.934625
vn  0.346946 -0.078137 0.934624
vn  -0.694241 -0.227305 0.682907
vn  -0.694241 -0.227305 0.682907
vn  -0.694241 -0.227305 0.682907
vn  0.696826 0.286982 -0.657324
vn  0.696826 0.286982 -0.657324
vn  0.696826 0.286982 -0.657324
vn  0.050448 -0.011361 -0.998662
vn  0.050448 -0.011361 -0.998662
vn  0.050448 -0.011361 -0.998662
vn  0.478934 -0.000000 0.877851
vn  0.478934 -0.000000 0.877851
vn  0.478934 -0.000000 0.877851
vn  -0.621040 -0.131654 0.772643
vn  -0.621040 -0.131654 0.772643
vn  -0.621040 -0.131654 0.772643

g Object05-Pivot
usemtl Temple Run Trees Material
f  1/1/1 2/2/2 3/3/3
f  4/4/4 2/2/2 1/1/1
f  3/3/3 5/5/5 1/1/1
f  5/5/5 6/6/6 1/1/1
f  2/2/2 7/7/7 3/3/3
f  7/7/7 8/8/8 3/3/3
f  7/7/7 9/9/9 8/8/8
f  9/9/9 10/10/10 8/8/8
f  9/9/9 11/11/11 10/10/10
f  11/11/11 12/12/12 10/10/10
f  13/13/13 14/14/14 3/3/3
f  1/1/1 15/15/15 16/16/16
f  15/15/15 17/17/17 16/16/16
f  18/18/18 19/19/19 20/20/20
f  21/21/21 18/18/18 20/20/20
f  22/22/22 23/23/23 24/24/24
f  25/25/25 22/22/22 24/24/24
f  18/18/18 26/26/26 19/19/19
f  26/26/26 27/27/27 19/19/19
f  22/22/22 28/28/28 23/23/23
f  28/28/28 29/29/29 23/23/23
f  15/15/15 30/30/30 17/17/17
f  30/30/30 31/31/31 17/17/17
f  32/32/32 33/33/33 34/34/34
f  35/35/35 32/32/32 34/34/34
f  34/34/34 33/33/33 36/36/36
f  33/33/33 37/37/37 36/36/36
f  38/38/38 39/39/39 40/40/40
f  41/41/41 42/42/42 43/43/43
f  44/44/44 45/45/45 46/46/46
f  47/47/47 44/44/44 46/46/46
f  48/48/48 49/49/49 50/50/50
f  51/51/51 49/49/49 48/48/48
f  52/52/52 53/53/53 54/54/54
f  55/55/55 56/56/56 57/57/57
f  58/58/58 55/55/55 57/57/57
f  55/55/55 59/59/59 56/56/56
f  59/59/59 60/60/60 56/56/56
f  61/61/61 62/62/62 63/63/63
f  64/64/64 61/61/61 63/63/63
f  61/61/61 65/65/65 62/62/62
f  65/65/65 66/66/66 62/62/62
f  67/67/67 68/68/68 69/69/69
f  70/70/70 67/67/67 69/69/69
f  67/67/67 71/71/71 68/68/68
f  71/71/71 72/72/72 68/68/68
f  73/73/73 74/74/74 75/75/75
f  76/76/76 73/73/73 75/75/75
f  77/77/77 78/78/78 79/79/79
f  80/80/80 77/77/77 79/79/79
f  81/81/81 82/82/82 83/83/83
f  84/84/84 81/81/81 83/83/83
f  85/85/85 86/86/86 87/87/87
f  88/88/88 85/85/85 87/87/87
f  86/86/86 85/85/85 89/89/89
f  90/90/90 91/91/91 92/92/92
f  93/93/93 92/92/92 91/91/91
f  94/94/94 95/95/95 96/96/96
f  97/97/97 98/98/98 99/99/99
f  100/100/100 97/97/97 99/99/99
f  97/97/97 101/101/101 98/98/98
f  101/101/101 102/102/102 98/98/98
f  101/101/101 103/103/103 102/102/102
f  103/103/103 104/104/104 102/102/102
f  105/105/105 106/106/106 107/107/107
f  108/108/108 105/105/105 107/107/107
f  109/109/109 110/110/110 111/111/111
f  112/112/112 113/113/113 114/114/114
f  115/115/115 113/113/113 112/112/112
f  115/115/115 116/116/116 113/113/113
f  116/116/116 117/117/117 113/113/113
f  118/118/118 119/119/119 120/120/120
f  121/121/121 118/118/118 120/120/120
f  118/118/118 122/122/122 119/119/119
f  122/122/122 123/123/123 119/119/119
f  124/124/124 125/125/125 126/126/126
f  127/127/127 128/128/128 129/129/129
f  130/130/130 131/131/131 132/132/132
f  133/133/133 134/134/134 135/135/135
f  136/136/136 137/137/137 138/138/138
f  139/139/139 140/140/140 141/141/141
f  142/142/142 143/143/143 144/144/144
f  142/142/142 145/145/145 143/143/143
f  146/146/146 147/147/147 148/148/148
f  149/149/149 150/150/150 151/151/151
f  152/152/152 153/153/153 154/154/154
f  155/155/155 156/156/156 157/157/157
f  158/158/158 159/159/159 160/160/160
f  161/161/161 162/162/162 163/163/163
f  164/164/164 161/161/161 163/163/163
f  165/165/165 166/166/166 167/167/167
f  168/168/168 169/169/169 170/170/170
f  171/171/171 172/172/172 173/173/173
f  174/174/174 175/175/175 176/176/176
f  177/177/177 178/178/178 179/179/179
f  180/180/180 181/181/181 182/182/182
f  183/183/183 184/184/184 185/185/185
f  186/186/186 187/187/187 188/188/188
f  189/189/189 190/190/190 191/191/191

g
