# Noesis .obj export.
#
mtllib treeJumpLeftVert_prefab.mtl
g
v  -9.614502 13.308765 1.324892
v  -13.028199 6.708138 -3.916868
v  -15.412842 15.103796 0.654299
v  -21.419189 8.340391 1.324893
v  -11.497315 3.288242 -3.672911
v  -6.476806 9.536567 1.995546
v  -9.966310 -0.131653 -3.429014
v  -1.268798 8.854784 1.995545
v  -1.171265 -0.053395 -3.212951
v  9.917235 -0.134463 -3.428957
v  5.135987 10.765499 1.995544
v  -9.614502 13.308765 1.324892
v  -15.412842 15.103796 0.654299
v  -15.350341 11.118863 4.299380
v  -21.419189 8.340391 1.324893
v  -10.011962 10.324358 4.970033
v  -12.586181 6.800828 6.701479
v  -19.217529 5.919519 4.970035
v  -6.476806 9.536567 1.995546
v  -11.208007 3.331683 6.701479
v  -7.680663 6.025625 5.640687
v  -1.268798 8.854784 1.995545
v  -1.268798 6.878377 5.098816
v  4.756593 7.213488 5.640685
v  -9.829833 -0.137463 6.701478
v  5.135987 10.765499 1.995544
v  12.397462 15.763544 3.424376
v  12.734376 0.059858 5.640684
v  -1.268798 0.045115 6.159607
v  23.895508 19.184187 5.640682
v  24.389404 18.156738 -3.428959
v  10.263061 6.062490 -3.428957
v  13.255859 15.400327 -1.068789
v  5.135987 10.765499 1.995544
v  10.263061 6.062490 -3.428957
v  9.917235 -0.134463 -3.428957
v  5.135987 10.765499 1.995544
v  21.268312 -0.786668 14.744808
v  23.895508 19.184187 5.640682
v  12.734376 0.059858 5.640684
v  43.862305 18.346174 10.523675
v  17.157108 -35.049637 29.761534
v  52.488525 74.453201 10.523673
v  32.521729 75.291214 5.640681
v  24.389404 18.156738 -3.428959
v  27.825193 0.168911 -10.439153
v  11.738036 2.883423 -3.428957
v  19.941402 -32.611465 -19.230167
v  47.538086 15.499225 -3.372505
v  43.912476 -2.545601 -3.847846
v  33.015625 74.263763 -3.428960
v  52.169678 68.759300 -7.464669
v  50.758179 -32.941704 -5.244881
v  17.157108 -35.049637 29.761534
v  42.713627 -32.851097 27.439995
v  40.540165 -1.633194 13.402825
v  21.268312 -0.786668 14.744808
v  43.862305 18.346174 10.523675
v  32.521729 75.291214 5.640681
v  33.015625 74.263763 -3.428960
v  24.389404 18.156738 -3.428959
v  23.895508 19.184187 5.640682
v  41.764282 154.772018 5.640679
v  42.258301 153.744568 -3.428962
v  61.731201 153.934006 10.523672
v  41.764282 154.772018 5.640679
v  42.258301 153.744568 -3.428962
v  61.412354 148.240112 -7.464670
v  47.538086 15.499225 -3.372505
v  52.169678 68.759300 -7.464669
v  52.488525 74.453201 10.523673
v  43.862305 18.346174 10.523675
v  43.912476 -2.545601 -3.847846
v  40.540165 -1.633194 13.402825
v  50.758179 -32.941704 -5.244881
v  42.713627 -32.851097 27.439995
v  61.412354 148.240112 -7.464670
v  61.731201 153.934006 10.523672
v  23.895508 19.184187 5.640682
v  24.389404 18.156738 -3.428959
v  13.255859 15.400327 -1.068789
v  12.397462 15.763544 3.424376
v  5.135987 10.765499 1.995544
v  -19.625488 -5.943192 1.707217
v  -21.419189 8.340391 1.324893
v  -11.842042 3.097809 -3.223326
v  -13.028199 6.708138 -3.916868
v  -11.522339 -6.153214 -1.512877
v  -15.554688 -18.196270 -0.657651
v  -25.752197 -17.845055 1.898381
v  -19.586914 -32.373528 0.197635
v  -25.199707 -31.881119 2.089543
v  -19.625488 -5.943192 1.707217
v  -19.217529 5.919519 4.970035
v  -21.419189 8.340391 1.324893
v  -17.996338 -7.203651 4.165408
v  -25.752197 -17.845055 1.898381
v  -24.409180 -18.525314 3.763126
v  -25.199707 -31.881119 2.089543
v  -24.142822 -31.981171 3.360783
v  -17.996338 -7.203651 4.165408
v  -12.303954 3.214634 6.337770
v  -19.217529 5.919519 4.970035
v  -12.586181 6.800828 6.701479
v  -11.753417 -6.098595 5.034243
v  -15.670165 -18.172752 4.382510
v  -24.409180 -18.525314 3.763126
v  -19.586914 -32.381104 3.730777
v  -24.142822 -31.981171 3.360783
v  11.738036 2.883423 -3.428957
v  4.756593 7.213488 5.640685
v  -1.268798 6.878377 5.098816
v  12.734376 0.059858 5.640684

vt  0.516026 -0.395328 0.000000
vt  0.493194 -0.442074 0.000000
vt  0.493628 -0.372339 0.000000
vt  0.435597 -0.353611 0.000000
vt  0.507981 -0.464731 0.000000
vt  0.538425 -0.418317 0.000000
vt  0.522768 -0.487388 0.000000
vt  0.573699 -0.415843 0.000000
vt  0.578146 -0.481116 0.000000
vt  0.681000 -0.472176 0.000000
vt  0.618079 -0.403131 0.000000
vt  0.516026 -0.395328 0.000000
vt  0.493628 -0.372339 0.000000
vt  0.497307 -0.403708 0.000000
vt  0.435597 -0.353611 0.000000
vt  0.514441 -0.424096 0.000000
vt  0.493194 -0.442074 0.000000
vt  0.447448 -0.377953 0.000000
vt  0.538425 -0.418317 0.000000
vt  0.508604 -0.465341 0.000000
vt  0.531574 -0.444484 0.000000
vt  0.575997 -0.413732 0.000000
vt  0.577148 -0.437796 0.000000
vt  0.617660 -0.435605 0.000000
vt  0.524014 -0.488609 0.000000
vt  0.617740 -0.405275 0.000000
vt  0.661271 -0.374371 0.000000
vt  0.679890 -0.472010 0.000000
vt  0.578146 -0.481116 0.000000
vt  0.738354 -0.325999 0.000000
vt  0.681444 -0.308500 0.000000
vt  0.701540 -0.410257 0.000000
vt  0.645149 -0.351992 0.000000
vt  0.618079 -0.403131 0.000000
vt  0.701540 -0.410257 0.000000
vt  0.681000 -0.472176 0.000000
vt  0.618079 -0.403131 0.000000
vt  0.744194 -0.466806 0.000000
vt  0.738354 -0.325999 0.000000
vt  0.679890 -0.472010 0.000000
vt  0.863816 -0.325999 0.000000
vt  0.749872 -0.691224 0.000000
vt  0.863816 -0.013712 0.000000
vt  0.738354 -0.013712 0.000000
vt  0.738354 -0.325999 0.000000
vt  0.745736 -0.466311 0.000000
vt  0.680387 -0.470008 0.000000
vt  0.748803 -0.692660 0.000000
vt  0.863816 -0.325999 0.000000
vt  0.863816 -0.466381 0.000000
vt  0.738354 -0.012071 0.000000
vt  0.863816 -0.012071 0.000000
vt  0.863816 -0.693566 0.000000
vt  0.749872 -0.691224 0.000000
vt  0.863816 -0.691224 0.000000
vt  0.863816 -0.465369 0.000000
vt  0.744194 -0.466806 0.000000
vt  0.863816 -0.325999 0.000000
vt  0.738354 -0.013712 0.000000
vt  0.681444 -0.013712 0.000000
vt  0.681444 -0.308195 0.000000
vt  0.738354 -0.325999 0.000000
vt  0.738354 -0.193135 0.000000
vt  0.681444 -0.193135 0.000000
vt  0.863816 -0.193135 0.000000
vt  0.738354 -0.193135 0.000000
vt  0.738354 -0.191793 0.000000
vt  0.863816 -0.193607 0.000000
vt  0.985975 -0.325999 0.000000
vt  0.985975 -0.013712 0.000000
vt  0.863816 -0.013712 0.000000
vt  0.863816 -0.325999 0.000000
vt  0.985975 -0.436902 0.000000
vt  0.863816 -0.465369 0.000000
vt  0.985975 -0.691224 0.000000
vt  0.863816 -0.691224 0.000000
vt  0.985975 -0.193135 0.000000
vt  0.863816 -0.193135 0.000000
vt  0.738354 -0.325999 0.000000
vt  0.681444 -0.308195 0.000000
vt  0.643907 -0.353979 0.000000
vt  0.661271 -0.374371 0.000000
vt  0.617740 -0.405275 0.000000
vt  0.370219 -0.414317 0.000000
vt  0.435597 -0.353611 0.000000
vt  0.468095 -0.451005 0.000000
vt  0.493194 -0.442074 0.000000
vt  0.419659 -0.464478 0.000000
vt  0.383463 -0.493682 0.000000
vt  0.334549 -0.471392 0.000000
vt  0.334293 -0.538827 0.000000
vt  0.308642 -0.521751 0.000000
vt  0.371650 -0.414329 0.000000
vt  0.447448 -0.377953 0.000000
vt  0.435597 -0.353611 0.000000
vt  0.390979 -0.437592 0.000000
vt  0.336203 -0.472676 0.000000
vt  0.357132 -0.481828 0.000000
vt  0.311035 -0.521164 0.000000
vt  0.312564 -0.524757 0.000000
vt  0.390979 -0.437592 0.000000
vt  0.467087 -0.451198 0.000000
vt  0.447448 -0.377953 0.000000
vt  0.493194 -0.442074 0.000000
vt  0.420131 -0.463830 0.000000
vt  0.382514 -0.494072 0.000000
vt  0.357132 -0.481828 0.000000
vt  0.336032 -0.539786 0.000000
vt  0.312564 -0.524757 0.000000
vt  0.738354 -0.325999 0.000000
vt  0.617660 -0.435605 0.000000
vt  0.577148 -0.437796 0.000000
vt  0.679890 -0.472010 0.000000

vn  0.520968 0.846139 -0.112430
vn  0.008961 0.119804 -0.992757
vn  -0.243643 0.959357 -0.142383
vn  -0.939837 0.304961 -0.153968
vn  0.603623 0.232734 -0.762545
vn  0.571765 0.806929 -0.148158
vn  0.288388 0.396131 -0.871730
vn  -0.069658 0.968953 -0.237230
vn  0.001722 0.504756 -0.863260
vn  -0.302734 0.345021 -0.888433
vn  -0.578600 0.793122 -0.190210
vn  0.520968 0.846139 -0.112430
vn  -0.243643 0.959357 -0.142383
vn  -0.256832 0.568428 0.781618
vn  -0.939837 0.304961 -0.153968
vn  0.295126 0.547996 0.782688
vn  0.023429 0.188062 0.981878
vn  -0.596777 0.113449 0.794347
vn  0.571765 0.806929 -0.148158
vn  0.234312 0.132242 0.963125
vn  0.182893 0.338053 0.923185
vn  -0.069658 0.968953 -0.237230
vn  -0.031797 0.546758 0.836687
vn  -0.126711 0.306350 0.943448
vn  0.122861 0.127922 0.984145
vn  -0.578600 0.793122 -0.190210
vn  -0.399438 0.764437 0.506048
vn  -0.379262 0.270335 0.884918
vn  0.047939 0.153225 0.987028
vn  -0.584224 0.478833 0.655287
vn  -0.397206 0.435979 -0.807558
vn  -0.418094 0.126393 -0.899568
vn  -0.403657 0.714668 -0.571236
vn  -0.578600 0.793122 -0.190210
vn  -0.418094 0.126393 -0.899568
vn  -0.302734 0.345021 -0.888433
vn  -0.578600 0.793122 -0.190210
vn  -0.348003 0.385233 0.854687
vn  -0.584224 0.478833 0.655287
vn  -0.379262 0.270335 0.884918
vn  0.555383 -0.000397 0.831595
vn  -0.070016 0.416682 0.906352
vn  0.605551 -0.061461 0.793430
vn  -0.797852 0.107054 0.593271
vn  -0.397206 0.435979 -0.807558
vn  0.018041 0.243600 -0.969708
vn  -0.227752 0.202735 -0.952380
vn  0.220618 0.198377 -0.954974
vn  0.834493 -0.074580 -0.545948
vn  0.866816 0.058475 -0.495187
vn  -0.738189 0.080946 -0.669720
vn  0.614407 -0.094095 -0.783358
vn  0.886705 0.204326 -0.414735
vn  -0.070016 0.416682 0.906352
vn  0.524438 0.379284 0.762305
vn  0.657008 0.197762 0.727482
vn  -0.348003 0.385233 0.854687
vn  0.555383 -0.000397 0.831595
vn  -0.797852 0.107054 0.593271
vn  -0.738189 0.080946 -0.669720
vn  -0.397206 0.435979 -0.807558
vn  -0.584224 0.478833 0.655287
vn  -0.772605 0.089844 0.628498
vn  -0.789480 0.091807 -0.606871
vn  0.519193 -0.060376 0.852522
vn  -0.772605 0.089844 0.628498
vn  -0.789480 0.091807 -0.606871
vn  0.672752 -0.078233 -0.735720
vn  0.834493 -0.074580 -0.545948
vn  0.614407 -0.094095 -0.783358
vn  0.605551 -0.061461 0.793430
vn  0.555383 -0.000397 0.831595
vn  0.866816 0.058475 -0.495187
vn  0.657008 0.197762 0.727482
vn  0.886705 0.204326 -0.414735
vn  0.524438 0.379284 0.762305
vn  0.672752 -0.078233 -0.735720
vn  0.519193 -0.060376 0.852522
vn  -0.584224 0.478833 0.655287
vn  -0.397206 0.435979 -0.807558
vn  -0.403657 0.714668 -0.571236
vn  -0.399438 0.764437 0.506048
vn  -0.578600 0.793122 -0.190210
vn  -0.940491 0.052944 -0.335668
vn  -0.939837 0.304961 -0.153968
vn  -0.469908 -0.187663 -0.862536
vn  0.008961 0.119804 -0.992757
vn  -0.369931 -0.075740 -0.925967
vn  -0.268569 0.056547 -0.961599
vn  -0.932566 0.226127 -0.281403
vn  -0.290676 -0.011351 -0.956754
vn  -0.957414 -0.051469 -0.284095
vn  -0.940491 0.052944 -0.335668
vn  -0.596777 0.113449 0.794347
vn  -0.939837 0.304961 -0.153968
vn  -0.438871 0.046529 0.897345
vn  -0.932566 0.226127 -0.281403
vn  -0.510186 0.092903 0.855032
vn  -0.957414 -0.051469 -0.284095
vn  -0.444738 -0.035564 0.894954
vn  -0.438871 0.046529 0.897345
vn  -0.208679 -0.105139 0.972316
vn  -0.596777 0.113449 0.794347
vn  0.023429 0.188062 0.981878
vn  -0.121251 -0.092074 0.988342
vn  -0.081221 -0.009959 0.996646
vn  -0.510186 0.092903 0.855032
vn  -0.078808 -0.029754 0.996446
vn  -0.444738 -0.035564 0.894954
vn  -0.227752 0.202735 -0.952380
vn  -0.126711 0.306350 0.943448
vn  -0.031797 0.546758 0.836687
vn  -0.379262 0.270335 0.884918

g Object97-Pivot
usemtl Temple Run Trees Material
f  1/1/1 2/2/2 3/3/3
f  4/4/4 3/3/3 2/2/2
f  5/5/5 2/2/2 1/1/1
f  6/6/6 5/5/5 1/1/1
f  7/7/7 5/5/5 6/6/6
f  8/8/8 7/7/7 6/6/6
f  9/9/9 7/7/7 8/8/8
f  10/10/10 9/9/9 8/8/8
f  11/11/11 10/10/10 8/8/8
f  12/12/12 13/13/13 14/14/14
f  15/15/15 14/14/14 13/13/13
f  16/16/16 12/12/12 14/14/14
f  16/16/16 14/14/14 17/17/17
f  18/18/18 14/14/14 15/15/15
f  18/18/18 17/17/17 14/14/14
f  19/19/19 12/12/12 16/16/16
f  20/20/20 16/16/16 17/17/17
f  21/21/21 16/16/16 20/20/20
f  21/21/21 19/19/19 16/16/16
f  22/22/22 19/19/19 21/21/21
f  23/23/23 22/22/22 21/21/21
f  24/24/24 22/22/22 23/23/23
f  23/23/23 21/21/21 25/25/25
f  25/25/25 21/21/21 20/20/20
f  26/26/26 22/22/22 24/24/24
f  27/27/27 26/26/26 24/24/24
f  27/27/27 24/24/24 28/28/28
f  29/29/29 23/23/23 25/25/25
f  28/28/28 23/23/23 29/29/29
f  28/28/28 30/30/30 27/27/27
f  31/31/31 32/32/32 33/33/33
f  33/33/33 32/32/32 34/34/34
f  35/35/35 36/36/36 37/37/37
f  38/38/38 39/39/39 40/40/40
f  41/41/41 39/39/39 38/38/38
f  40/40/40 42/42/42 38/38/38
f  41/41/41 43/43/43 39/39/39
f  43/43/43 44/44/44 39/39/39
f  45/45/45 46/46/46 47/47/47
f  46/46/46 48/48/48 47/47/47
f  49/49/49 46/46/46 45/45/45
f  50/50/50 46/46/46 49/49/49
f  50/50/50 48/48/48 46/46/46
f  45/45/45 51/51/51 49/49/49
f  51/51/51 52/52/52 49/49/49
f  53/53/53 48/48/48 50/50/50
f  54/54/54 55/55/55 56/56/56
f  57/57/57 54/54/54 56/56/56
f  56/56/56 58/58/58 57/57/57
f  59/59/59 60/60/60 61/61/61
f  62/62/62 59/59/59 61/61/61
f  59/59/59 63/63/63 60/60/60
f  63/63/63 64/64/64 60/60/60
f  43/43/43 65/65/65 44/44/44
f  65/65/65 66/66/66 44/44/44
f  51/51/51 67/67/67 52/52/52
f  67/67/67 68/68/68 52/52/52
f  69/69/69 70/70/70 71/71/71
f  72/72/72 69/69/69 71/71/71
f  73/73/73 69/69/69 72/72/72
f  74/74/74 73/73/73 72/72/72
f  75/75/75 73/73/73 74/74/74
f  76/76/76 75/75/75 74/74/74
f  70/70/70 77/77/77 78/78/78
f  71/71/71 70/70/70 78/78/78
f  79/79/79 80/80/80 81/81/81
f  82/82/82 79/79/79 81/81/81
f  81/81/81 83/83/83 82/82/82
f  84/84/84 85/85/85 86/86/86
f  86/86/86 85/85/85 87/87/87
f  88/88/88 84/84/84 86/86/86
f  89/89/89 84/84/84 88/88/88
f  90/90/90 84/84/84 89/89/89
f  91/91/91 90/90/90 89/89/89
f  92/92/92 90/90/90 91/91/91
f  93/93/93 94/94/94 95/95/95
f  96/96/96 94/94/94 93/93/93
f  97/97/97 96/96/96 93/93/93
f  98/98/98 96/96/96 97/97/97
f  99/99/99 98/98/98 97/97/97
f  100/100/100 98/98/98 99/99/99
f  101/101/101 102/102/102 103/103/103
f  102/102/102 104/104/104 103/103/103
f  105/105/105 102/102/102 101/101/101
f  106/106/106 105/105/105 101/101/101
f  107/107/107 106/106/106 101/101/101
f  108/108/108 106/106/106 107/107/107
f  109/109/109 108/108/108 107/107/107
f  110/110/110 32/32/32 31/31/31
f  111/111/111 112/112/112 113/113/113

g
